<?xml version="1.0" encoding="UTF-8"?>
<!DOCTYPE svg PUBLIC "-//W3C//DTD SVG 1.1//EN" "http://www.w3.org/Graphics/SVG/1.1/DTD/svg11.dtd">
<svg version="1.2" width="11.29mm" height="11.29mm" viewBox="0 0 1129 1129" preserveAspectRatio="xMidYMid" fill-rule="evenodd" stroke-width="28.222" stroke-linejoin="round" xmlns="http://www.w3.org/2000/svg" xmlns:ooo="http://xml.openoffice.org/svg/export" xmlns:xlink="http://www.w3.org/1999/xlink" xmlns:presentation="http://sun.com/xmlns/staroffice/presentation" xmlns:smil="http://www.w3.org/2001/SMIL20/" xmlns:anim="urn:oasis:names:tc:opendocument:xmlns:animation:1.0" xml:space="preserve">
 <defs class="ClipPathGroup">
  <clipPath id="presentation_clip_path" clipPathUnits="userSpaceOnUse">
   <rect x="0" y="0" width="1129" height="1129"/>
  </clipPath>
 </defs>
 <defs class="TextShapeIndex">
  <g ooo:slide="id1" ooo:id-list="id3 id4 id5 id6 id7 id8 id9 id10 id11 id12 id13 id14 id15 id16 id17 id18 id19 id20 id21 id22 id23 id24 id25 id26 id27 id28 id29 id30 id31 id32 id33 id34 id35 id36 id37 id38 id39 id40 id41 id42 id43 id44 id45 id46 id47 id48 id49 id50 id51 id52 id53 id54 id55 id56 id57 id58 id59 id60 id61 id62 id63 id64 id65 id66 id67 id68 id69 id70 id71"/>
 </defs>
 <defs class="EmbeddedBulletChars">
  <g id="bullet-char-template(57356)" transform="scale(0.00048828125,-0.00048828125)">
   <path d="M 580,1141 L 1163,571 580,0 -4,571 580,1141 Z"/>
  </g>
  <g id="bullet-char-template(57354)" transform="scale(0.00048828125,-0.00048828125)">
   <path d="M 8,1128 L 1137,1128 1137,0 8,0 8,1128 Z"/>
  </g>
  <g id="bullet-char-template(10146)" transform="scale(0.00048828125,-0.00048828125)">
   <path d="M 174,0 L 602,739 174,1481 1456,739 174,0 Z M 1358,739 L 309,1346 659,739 1358,739 Z"/>
  </g>
  <g id="bullet-char-template(10132)" transform="scale(0.00048828125,-0.00048828125)">
   <path d="M 2015,739 L 1276,0 717,0 1260,543 174,543 174,936 1260,936 717,1481 1274,1481 2015,739 Z"/>
  </g>
  <g id="bullet-char-template(10007)" transform="scale(0.00048828125,-0.00048828125)">
   <path d="M 0,-2 C -7,14 -16,27 -25,37 L 356,567 C 262,823 215,952 215,954 215,979 228,992 255,992 264,992 276,990 289,987 310,991 331,999 354,1012 L 381,999 492,748 772,1049 836,1024 860,1049 C 881,1039 901,1025 922,1006 886,937 835,863 770,784 769,783 710,716 594,584 L 774,223 C 774,196 753,168 711,139 L 727,119 C 717,90 699,76 672,76 641,76 570,178 457,381 L 164,-76 C 142,-110 111,-127 72,-127 30,-127 9,-110 8,-76 1,-67 -2,-52 -2,-32 -2,-23 -1,-13 0,-2 Z"/>
  </g>
  <g id="bullet-char-template(10004)" transform="scale(0.00048828125,-0.00048828125)">
   <path d="M 285,-33 C 182,-33 111,30 74,156 52,228 41,333 41,471 41,549 55,616 82,672 116,743 169,778 240,778 293,778 328,747 346,684 L 369,508 C 377,444 397,411 428,410 L 1163,1116 C 1174,1127 1196,1133 1229,1133 1271,1133 1292,1118 1292,1087 L 1292,965 C 1292,929 1282,901 1262,881 L 442,47 C 390,-6 338,-33 285,-33 Z"/>
  </g>
  <g id="bullet-char-template(9679)" transform="scale(0.00048828125,-0.00048828125)">
   <path d="M 813,0 C 632,0 489,54 383,161 276,268 223,411 223,592 223,773 276,916 383,1023 489,1130 632,1184 813,1184 992,1184 1136,1130 1245,1023 1353,916 1407,772 1407,592 1407,412 1353,268 1245,161 1136,54 992,0 813,0 Z"/>
  </g>
  <g id="bullet-char-template(8226)" transform="scale(0.00048828125,-0.00048828125)">
   <path d="M 346,457 C 273,457 209,483 155,535 101,586 74,649 74,723 74,796 101,859 155,911 209,963 273,989 346,989 419,989 480,963 531,910 582,859 608,796 608,723 608,648 583,586 532,535 482,483 420,457 346,457 Z"/>
  </g>
  <g id="bullet-char-template(8211)" transform="scale(0.00048828125,-0.00048828125)">
   <path d="M -4,459 L 1135,459 1135,606 -4,606 -4,459 Z"/>
  </g>
 </defs>
 <defs class="TextEmbeddedBitmaps"/>
 <g>
  <g id="id2" class="Master_Slide">
   <g id="bg-id2" class="Background"/>
   <g id="bo-id2" class="BackgroundObjects"/>
  </g>
 </g>
 <g class="SlideGroup">
  <g>
   <g id="id1" class="Slide" clip-path="url(#presentation_clip_path)">
    <g class="Page">
     <g class="com.sun.star.drawing.PolyPolygonShape">
      <g id="id3">
       <rect class="BoundingBox" stroke="none" fill="none" x="0" y="-1" width="7" height="7"/>
      </g>
     </g>
     <g class="com.sun.star.drawing.PolyPolygonShape">
      <g id="id4">
       <rect class="BoundingBox" stroke="none" fill="none" x="0" y="-1" width="6" height="6"/>
      </g>
     </g>
     <g class="com.sun.star.drawing.PolyPolygonShape">
      <g id="id5">
       <rect class="BoundingBox" stroke="none" fill="none" x="0" y="-1" width="5" height="5"/>
       <path fill="rgb(0,0,0)" stroke="none" d="M 4,-1 L 4,3 0,3 4,-1 Z"/>
      </g>
     </g>
     <g class="com.sun.star.drawing.PolyPolygonShape">
      <g id="id6">
       <rect class="BoundingBox" stroke="none" fill="none" x="0" y="-1" width="7" height="7"/>
      </g>
     </g>
     <g class="com.sun.star.drawing.PolyPolygonShape">
      <g id="id7">
       <rect class="BoundingBox" stroke="none" fill="none" x="0" y="-1" width="6" height="6"/>
      </g>
     </g>
     <g class="com.sun.star.drawing.PolyPolygonShape">
      <g id="id8">
       <rect class="BoundingBox" stroke="none" fill="none" x="0" y="-1" width="5" height="5"/>
       <path fill="rgb(0,0,0)" stroke="none" d="M 0,-1 L 4,-1 4,3 0,3 0,-1 Z"/>
      </g>
     </g>
     <g class="com.sun.star.drawing.PolyPolygonShape">
      <g id="id9">
       <rect class="BoundingBox" stroke="none" fill="none" x="0" y="-1" width="7" height="7"/>
      </g>
     </g>
     <g class="com.sun.star.drawing.PolyPolygonShape">
      <g id="id10">
       <rect class="BoundingBox" stroke="none" fill="none" x="0" y="-1" width="6" height="6"/>
      </g>
     </g>
     <g class="com.sun.star.drawing.PolyPolygonShape">
      <g id="id11">
       <rect class="BoundingBox" stroke="none" fill="none" x="0" y="-1" width="5" height="5"/>
       <path fill="rgb(0,0,0)" stroke="none" d="M 0,3 L 0,-1 4,3 0,3 Z M 4,3 L 0,-1 0,3 4,3 Z"/>
      </g>
     </g>
     <g class="com.sun.star.drawing.PolyPolygonShape">
      <g id="id12">
       <rect class="BoundingBox" stroke="none" fill="none" x="0" y="-1" width="8" height="7"/>
      </g>
     </g>
     <g class="com.sun.star.drawing.PolyPolygonShape">
      <g id="id13">
       <rect class="BoundingBox" stroke="none" fill="none" x="0" y="-1" width="7" height="6"/>
      </g>
     </g>
     <g class="com.sun.star.drawing.PolyPolygonShape">
      <g id="id14">
       <rect class="BoundingBox" stroke="none" fill="none" x="0" y="-1" width="6" height="5"/>
       <path fill="rgb(0,0,0)" stroke="none" d="M 5,3 L 4,3 0,3 4,3 4,-1 5,3 Z"/>
      </g>
     </g>
     <g class="com.sun.star.drawing.PolyPolygonShape">
      <g id="id15">
       <rect class="BoundingBox" stroke="none" fill="none" x="0" y="-1" width="5" height="6"/>
      </g>
     </g>
     <g class="com.sun.star.drawing.PolyPolygonShape">
      <g id="id16">
       <rect class="BoundingBox" stroke="none" fill="none" x="0" y="-1" width="7" height="7"/>
      </g>
     </g>
     <g class="com.sun.star.drawing.PolyPolygonShape">
      <g id="id17">
       <rect class="BoundingBox" stroke="none" fill="none" x="0" y="-1" width="6" height="6"/>
      </g>
     </g>
     <g class="com.sun.star.drawing.PolyPolygonShape">
      <g id="id18">
       <rect class="BoundingBox" stroke="none" fill="none" x="0" y="-1" width="5" height="5"/>
       <path fill="rgb(0,0,0)" stroke="none" d="M 0,3 L 0,-1 0,3 4,-1 0,3 Z"/>
      </g>
     </g>
     <g class="com.sun.star.drawing.PolyPolygonShape">
      <g id="id19">
       <rect class="BoundingBox" stroke="none" fill="none" x="0" y="-1" width="7" height="7"/>
      </g>
     </g>
     <g class="com.sun.star.drawing.PolyPolygonShape">
      <g id="id20">
       <rect class="BoundingBox" stroke="none" fill="none" x="0" y="-1" width="6" height="6"/>
      </g>
     </g>
     <g class="com.sun.star.drawing.ClosedBezierShape">
      <g id="id21">
       <rect class="BoundingBox" stroke="none" fill="none" x="0" y="-1" width="5" height="5"/>
       <path fill="rgb(0,0,0)" stroke="none" d="M 4,3 C 0,3 0,3 0,3 0,-1 0,-1 0,-1 L 4,-1 4,3 Z"/>
      </g>
     </g>
     <g class="com.sun.star.drawing.PolyPolygonShape">
      <g id="id22">
       <rect class="BoundingBox" stroke="none" fill="none" x="0" y="0" width="5" height="5"/>
      </g>
     </g>
     <g class="com.sun.star.drawing.PolyPolygonShape">
      <g id="id23">
       <rect class="BoundingBox" stroke="none" fill="none" x="0" y="0" width="3" height="3"/>
      </g>
     </g>
     <g class="com.sun.star.drawing.PolyPolygonShape">
      <g id="id24">
       <rect class="BoundingBox" stroke="none" fill="none" x="0" y="0" width="1" height="1"/>
       <path fill="rgb(0,0,0)" stroke="none" d="M 0,0 L 0,0 Z"/>
      </g>
     </g>
     <g class="com.sun.star.drawing.PolyPolygonShape">
      <g id="id25">
       <rect class="BoundingBox" stroke="none" fill="none" x="0" y="0" width="6" height="5"/>
      </g>
     </g>
     <g class="com.sun.star.drawing.PolyPolygonShape">
      <g id="id26">
       <rect class="BoundingBox" stroke="none" fill="none" x="0" y="-1" width="8" height="8"/>
      </g>
     </g>
     <g class="com.sun.star.drawing.PolyPolygonShape">
      <g id="id27">
       <rect class="BoundingBox" stroke="none" fill="none" x="0" y="-1" width="7" height="7"/>
      </g>
     </g>
     <g class="com.sun.star.drawing.PolyPolygonShape">
      <g id="id28">
       <rect class="BoundingBox" stroke="none" fill="none" x="0" y="-1" width="6" height="6"/>
       <path fill="rgb(0,0,0)" stroke="none" d="M 5,-1 L 5,4 0,4 5,-1 Z"/>
      </g>
     </g>
     <g class="com.sun.star.drawing.PolyPolygonShape">
      <g id="id29">
       <rect class="BoundingBox" stroke="none" fill="none" x="0" y="-1" width="8" height="8"/>
      </g>
     </g>
     <g class="com.sun.star.drawing.PolyPolygonShape">
      <g id="id30">
       <rect class="BoundingBox" stroke="none" fill="none" x="0" y="-1" width="7" height="7"/>
      </g>
     </g>
     <g class="com.sun.star.drawing.PolyPolygonShape">
      <g id="id31">
       <rect class="BoundingBox" stroke="none" fill="none" x="0" y="-1" width="6" height="6"/>
       <path fill="rgb(0,0,0)" stroke="none" d="M 0,-1 L 5,-1 5,4 0,4 0,-1 Z"/>
      </g>
     </g>
     <g class="com.sun.star.drawing.PolyPolygonShape">
      <g id="id32">
       <rect class="BoundingBox" stroke="none" fill="none" x="0" y="-1" width="8" height="8"/>
      </g>
     </g>
     <g class="com.sun.star.drawing.PolyPolygonShape">
      <g id="id33">
       <rect class="BoundingBox" stroke="none" fill="none" x="0" y="-1" width="7" height="7"/>
      </g>
     </g>
     <g class="com.sun.star.drawing.PolyPolygonShape">
      <g id="id34">
       <rect class="BoundingBox" stroke="none" fill="none" x="0" y="-1" width="6" height="6"/>
       <path fill="rgb(0,0,0)" stroke="none" d="M 0,4 L 0,-1 5,4 0,4 Z M 5,4 L 0,-1 0,4 5,4 Z"/>
      </g>
     </g>
     <g class="com.sun.star.drawing.PolyPolygonShape">
      <g id="id35">
       <rect class="BoundingBox" stroke="none" fill="none" x="0" y="-1" width="9" height="8"/>
      </g>
     </g>
     <g class="com.sun.star.drawing.PolyPolygonShape">
      <g id="id36">
       <rect class="BoundingBox" stroke="none" fill="none" x="0" y="-1" width="8" height="7"/>
      </g>
     </g>
     <g class="com.sun.star.drawing.PolyPolygonShape">
      <g id="id37">
       <rect class="BoundingBox" stroke="none" fill="none" x="0" y="-1" width="7" height="6"/>
       <path fill="rgb(0,0,0)" stroke="none" d="M 6,4 L 5,4 0,4 5,4 5,-1 6,4 Z"/>
      </g>
     </g>
     <g class="com.sun.star.drawing.PolyPolygonShape">
      <g id="id38">
       <rect class="BoundingBox" stroke="none" fill="none" x="0" y="-1" width="8" height="8"/>
      </g>
     </g>
     <g class="com.sun.star.drawing.PolyPolygonShape">
      <g id="id39">
       <rect class="BoundingBox" stroke="none" fill="none" x="0" y="-1" width="7" height="7"/>
      </g>
     </g>
     <g class="com.sun.star.drawing.PolyPolygonShape">
      <g id="id40">
       <rect class="BoundingBox" stroke="none" fill="none" x="0" y="-1" width="6" height="6"/>
       <path fill="rgb(0,0,0)" stroke="none" d="M 0,4 L 0,-1 0,4 5,-1 0,4 Z"/>
      </g>
     </g>
     <g class="com.sun.star.drawing.PolyPolygonShape">
      <g id="id41">
       <rect class="BoundingBox" stroke="none" fill="none" x="0" y="-1" width="8" height="8"/>
      </g>
     </g>
     <g class="com.sun.star.drawing.PolyPolygonShape">
      <g id="id42">
       <rect class="BoundingBox" stroke="none" fill="none" x="0" y="-1" width="7" height="7"/>
      </g>
     </g>
     <g class="com.sun.star.drawing.ClosedBezierShape">
      <g id="id43">
       <rect class="BoundingBox" stroke="none" fill="none" x="0" y="-1" width="6" height="6"/>
       <path fill="rgb(0,0,0)" stroke="none" d="M 5,4 C 0,4 0,4 0,4 0,-1 0,-1 0,-1 L 5,-1 5,4 Z"/>
      </g>
     </g>
     <g class="com.sun.star.drawing.PolyPolygonShape">
      <g id="id44">
       <rect class="BoundingBox" stroke="none" fill="none" x="0" y="0" width="5" height="5"/>
      </g>
     </g>
     <g class="com.sun.star.drawing.PolyPolygonShape">
      <g id="id45">
       <rect class="BoundingBox" stroke="none" fill="none" x="0" y="0" width="3" height="3"/>
      </g>
     </g>
     <g class="com.sun.star.drawing.PolyPolygonShape">
      <g id="id46">
       <rect class="BoundingBox" stroke="none" fill="none" x="0" y="0" width="1" height="1"/>
       <path fill="rgb(0,0,0)" stroke="none" d="M 0,0 L 0,0 Z"/>
      </g>
     </g>
     <g class="com.sun.star.drawing.PolyPolygonShape">
      <g id="id47">
       <rect class="BoundingBox" stroke="none" fill="none" x="0" y="-1" width="9" height="9"/>
      </g>
     </g>
     <g class="com.sun.star.drawing.PolyPolygonShape">
      <g id="id48">
       <rect class="BoundingBox" stroke="none" fill="none" x="0" y="-1" width="8" height="8"/>
      </g>
     </g>
     <g class="com.sun.star.drawing.PolyPolygonShape">
      <g id="id49">
       <rect class="BoundingBox" stroke="none" fill="none" x="0" y="-1" width="7" height="7"/>
       <path fill="rgb(0,0,0)" stroke="none" d="M 6,-1 L 6,5 0,5 6,-1 Z"/>
      </g>
     </g>
     <g class="com.sun.star.drawing.PolyPolygonShape">
      <g id="id50">
       <rect class="BoundingBox" stroke="none" fill="none" x="0" y="-1" width="9" height="9"/>
      </g>
     </g>
     <g class="com.sun.star.drawing.PolyPolygonShape">
      <g id="id51">
       <rect class="BoundingBox" stroke="none" fill="none" x="0" y="-1" width="8" height="8"/>
      </g>
     </g>
     <g class="com.sun.star.drawing.PolyPolygonShape">
      <g id="id52">
       <rect class="BoundingBox" stroke="none" fill="none" x="0" y="-1" width="7" height="7"/>
       <path fill="rgb(0,0,0)" stroke="none" d="M 0,-1 L 6,-1 6,5 0,5 0,-1 Z"/>
      </g>
     </g>
     <g class="com.sun.star.drawing.PolyPolygonShape">
      <g id="id53">
       <rect class="BoundingBox" stroke="none" fill="none" x="0" y="-1" width="9" height="9"/>
      </g>
     </g>
     <g class="com.sun.star.drawing.PolyPolygonShape">
      <g id="id54">
       <rect class="BoundingBox" stroke="none" fill="none" x="0" y="-1" width="8" height="8"/>
      </g>
     </g>
     <g class="com.sun.star.drawing.PolyPolygonShape">
      <g id="id55">
       <rect class="BoundingBox" stroke="none" fill="none" x="0" y="-1" width="7" height="7"/>
       <path fill="rgb(0,0,0)" stroke="none" d="M 0,5 L 0,-1 6,5 0,5 Z M 6,5 L 0,-1 0,5 6,5 Z"/>
      </g>
     </g>
     <g class="com.sun.star.drawing.PolyPolygonShape">
      <g id="id56">
       <rect class="BoundingBox" stroke="none" fill="none" x="0" y="-1" width="10" height="9"/>
      </g>
     </g>
     <g class="com.sun.star.drawing.PolyPolygonShape">
      <g id="id57">
       <rect class="BoundingBox" stroke="none" fill="none" x="0" y="-1" width="9" height="8"/>
      </g>
     </g>
     <g class="com.sun.star.drawing.PolyPolygonShape">
      <g id="id58">
       <rect class="BoundingBox" stroke="none" fill="none" x="0" y="-1" width="8" height="7"/>
       <path fill="rgb(0,0,0)" stroke="none" d="M 7,5 L 6,5 0,5 6,5 6,-1 7,5 Z"/>
      </g>
     </g>
     <g class="com.sun.star.drawing.PolyPolygonShape">
      <g id="id59">
       <rect class="BoundingBox" stroke="none" fill="none" x="0" y="-1" width="9" height="9"/>
      </g>
     </g>
     <g class="com.sun.star.drawing.PolyPolygonShape">
      <g id="id60">
       <rect class="BoundingBox" stroke="none" fill="none" x="0" y="-1" width="8" height="8"/>
      </g>
     </g>
     <g class="com.sun.star.drawing.PolyPolygonShape">
      <g id="id61">
       <rect class="BoundingBox" stroke="none" fill="none" x="0" y="-1" width="7" height="7"/>
       <path fill="rgb(0,0,0)" stroke="none" d="M 0,5 L 0,-1 0,5 6,-1 0,5 Z"/>
      </g>
     </g>
     <g class="com.sun.star.drawing.PolyPolygonShape">
      <g id="id62">
       <rect class="BoundingBox" stroke="none" fill="none" x="0" y="-1" width="9" height="9"/>
      </g>
     </g>
     <g class="com.sun.star.drawing.PolyPolygonShape">
      <g id="id63">
       <rect class="BoundingBox" stroke="none" fill="none" x="0" y="-1" width="8" height="8"/>
      </g>
     </g>
     <g class="com.sun.star.drawing.ClosedBezierShape">
      <g id="id64">
       <rect class="BoundingBox" stroke="none" fill="none" x="0" y="-1" width="7" height="7"/>
       <path fill="rgb(0,0,0)" stroke="none" d="M 6,5 C 0,5 0,5 0,5 0,-1 0,-1 0,-1 L 6,-1 6,5 Z"/>
      </g>
     </g>
     <g class="com.sun.star.drawing.PolyPolygonShape">
      <g id="id65">
       <rect class="BoundingBox" stroke="none" fill="none" x="0" y="0" width="5" height="5"/>
      </g>
     </g>
     <g class="com.sun.star.drawing.PolyPolygonShape">
      <g id="id66">
       <rect class="BoundingBox" stroke="none" fill="none" x="0" y="0" width="3" height="3"/>
      </g>
     </g>
     <g class="com.sun.star.drawing.PolyPolygonShape">
      <g id="id67">
       <rect class="BoundingBox" stroke="none" fill="none" x="0" y="0" width="1" height="1"/>
       <path fill="rgb(0,0,0)" stroke="none" d="M 0,0 L 0,0 Z"/>
      </g>
     </g>
     <g class="com.sun.star.drawing.PolyPolygonShape">
      <g id="id68">
       <rect class="BoundingBox" stroke="none" fill="none" x="374" y="38" width="929" height="965"/>
      </g>
     </g>
     <g class="com.sun.star.drawing.TextShape">
      <g id="id69">
       <rect class="BoundingBox" stroke="none" fill="none" x="0" y="-8" width="3" height="938"/>
      </g>
     </g>
     <g class="com.sun.star.drawing.PolyPolygonShape">
      <g id="id70">
       <rect class="BoundingBox" stroke="none" fill="none" x="599" y="199" width="409" height="703"/>
       <path fill="rgb(0,0,0)" stroke="none" d="M 1007,421 L 1007,433 1006,444 1005,455 1004,466 1003,477 1001,487 999,498 996,509 993,519 990,529 986,539 983,548 978,557 974,566 969,575 963,583 958,591 951,598 945,605 938,612 931,618 923,624 915,629 907,634 898,639 889,643 880,646 870,649 859,651 849,652 838,653 826,653 703,653 703,900 600,900 600,200 822,200 834,200 845,201 856,202 866,204 876,206 886,209 895,212 904,216 913,220 921,225 929,230 936,235 943,241 950,248 956,254 962,261 967,269 973,277 977,285 982,294 986,303 989,312 993,321 996,332 998,342 1001,352 1002,363 1004,374 1005,386 1006,397 1007,409 1007,421 Z M 902,424 L 902,411 901,398 899,387 898,382 897,376 895,371 893,366 892,362 890,357 887,353 885,349 882,345 879,342 876,338 873,335 870,332 866,329 863,327 859,325 851,321 842,318 832,315 822,314 810,314 703,314 703,540 813,540 819,540 824,540 830,539 835,538 840,537 844,536 849,534 853,532 857,530 861,527 865,525 868,522 872,519 875,515 878,512 881,508 884,504 886,500 888,496 890,491 892,487 894,482 896,477 897,471 898,466 899,460 900,454 901,449 902,443 902,436 902,430 902,424 Z"/>
      </g>
     </g>
     <g class="com.sun.star.drawing.CustomShape">
      <g id="id71">
       <rect class="BoundingBox" stroke="none" fill="none" x="59" y="159" width="784" height="784"/>
       <defs>
        <mask id="mask1">
         <g>
          <defs>
           <linearGradient id="gradient1" x1="491" y1="160" x2="491" y2="942" gradientUnits="userSpaceOnUse">
            <stop offset="0.5" style="stop-color:rgb(102,102,102)"/>
            <stop offset="0.5" style="stop-color:rgb(102,102,102)"/>
            <stop offset="1" style="stop-color:rgb(102,102,102)"/>
            <stop offset="1" style="stop-color:rgb(102,102,102)"/>
           </linearGradient>
          </defs>
          <path style="fill:url(#gradient1)" d="M 140,160 L 842,160 842,942 140,942 140,160 Z"/>
         </g>
        </mask>
       </defs>
       <g style="mask:url(#mask1)">
        <path fill="none" stroke="rgb(0,0,255)" stroke-width="81" stroke-linejoin="round" d="M 419,200 L 801,901 180,901 419,200 Z"/>
       </g>
       <defs>
        <mask id="mask2">
         <g>
          <defs>
           <linearGradient id="gradient2" x1="99" y1="160" x2="99" y2="241" gradientUnits="userSpaceOnUse">
            <stop offset="0.5" style="stop-color:rgb(102,102,102)"/>
            <stop offset="0.5" style="stop-color:rgb(102,102,102)"/>
            <stop offset="1" style="stop-color:rgb(102,102,102)"/>
            <stop offset="1" style="stop-color:rgb(102,102,102)"/>
           </linearGradient>
          </defs>
          <path style="fill:url(#gradient2)" d="M 59,160 L 140,160 140,241 59,241 59,160 Z"/>
         </g>
        </mask>
       </defs>
       <g style="mask:url(#mask2)"/>
       <defs>
        <mask id="mask3">
         <g>
          <defs>
           <linearGradient id="gradient3" x1="801" y1="861" x2="801" y2="942" gradientUnits="userSpaceOnUse">
            <stop offset="0.5" style="stop-color:rgb(102,102,102)"/>
            <stop offset="0.5" style="stop-color:rgb(102,102,102)"/>
            <stop offset="1" style="stop-color:rgb(102,102,102)"/>
            <stop offset="1" style="stop-color:rgb(102,102,102)"/>
           </linearGradient>
          </defs>
          <path style="fill:url(#gradient3)" d="M 761,861 L 842,861 842,942 761,942 761,861 Z"/>
         </g>
        </mask>
       </defs>
       <g style="mask:url(#mask3)"/>
      </g>
     </g>
    </g>
   </g>
  </g>
 </g>
</svg>