<?xml version="1.0" encoding="UTF-8"?>

<svg version="1.2" baseProfile="tiny" width="11.29mm" height="11.29mm" viewBox="0 0 1129 1129" preserveAspectRatio="xMidYMid" fill-rule="evenodd" clip-path="url(#presentation_clip_path)" stroke-width="28.222" stroke-linejoin="round" xmlns="http://www.w3.org/2000/svg" xmlns:ooo="http://xml.openoffice.org/svg/export" xmlns:xlink="http://www.w3.org/1999/xlink" xml:space="preserve">
 <defs class="ClipPathGroup">
  <clipPath id="presentation_clip_path" clipPathUnits="userSpaceOnUse">
   <rect x="0" y="0" width="1129" height="1129"/>
  </clipPath>
 </defs>
 <defs class="TextShapeIndex">
  <g ooo:slide="id1" ooo:id-list="id3 id4 id5 id6 id7 id8 id9 id10 id11 id12 id13 id14 id15 id16 id17 id18 id19 id20 id21 id22 id23 id24 id25 id26 id27 id28 id29 id30"/>
 </defs>
 <defs class="EmbeddedBulletChars">
  <g id="bullet-char-template(57356)" transform="scale(0.00048828125,-0.00048828125)">
   <path d="M 580,1141 L 1163,571 580,0 -4,571 580,1141 Z"/>
  </g>
  <g id="bullet-char-template(57354)" transform="scale(0.00048828125,-0.00048828125)">
   <path d="M 8,1128 L 1137,1128 1137,0 8,0 8,1128 Z"/>
  </g>
  <g id="bullet-char-template(10146)" transform="scale(0.00048828125,-0.00048828125)">
   <path d="M 174,0 L 602,739 174,1481 1456,739 174,0 Z M 1358,739 L 309,1346 659,739 1358,739 Z"/>
  </g>
  <g id="bullet-char-template(10132)" transform="scale(0.00048828125,-0.00048828125)">
   <path d="M 2015,739 L 1276,0 717,0 1260,543 174,543 174,936 1260,936 717,1481 1274,1481 2015,739 Z"/>
  </g>
  <g id="bullet-char-template(10007)" transform="scale(0.00048828125,-0.00048828125)">
   <path d="M 0,-2 C -7,14 -16,27 -25,37 L 356,567 C 262,823 215,952 215,954 215,979 228,992 255,992 264,992 276,990 289,987 310,991 331,999 354,1012 L 381,999 492,748 772,1049 836,1024 860,1049 C 881,1039 901,1025 922,1006 886,937 835,863 770,784 769,783 710,716 594,584 L 774,223 C 774,196 753,168 711,139 L 727,119 C 717,90 699,76 672,76 641,76 570,178 457,381 L 164,-76 C 142,-110 111,-127 72,-127 30,-127 9,-110 8,-76 1,-67 -2,-52 -2,-32 -2,-23 -1,-13 0,-2 Z"/>
  </g>
  <g id="bullet-char-template(10004)" transform="scale(0.00048828125,-0.00048828125)">
   <path d="M 285,-33 C 182,-33 111,30 74,156 52,228 41,333 41,471 41,549 55,616 82,672 116,743 169,778 240,778 293,778 328,747 346,684 L 369,508 C 377,444 397,411 428,410 L 1163,1116 C 1174,1127 1196,1133 1229,1133 1271,1133 1292,1118 1292,1087 L 1292,965 C 1292,929 1282,901 1262,881 L 442,47 C 390,-6 338,-33 285,-33 Z"/>
  </g>
  <g id="bullet-char-template(9679)" transform="scale(0.00048828125,-0.00048828125)">
   <path d="M 813,0 C 632,0 489,54 383,161 276,268 223,411 223,592 223,773 276,916 383,1023 489,1130 632,1184 813,1184 992,1184 1136,1130 1245,1023 1353,916 1407,772 1407,592 1407,412 1353,268 1245,161 1136,54 992,0 813,0 Z"/>
  </g>
  <g id="bullet-char-template(8226)" transform="scale(0.00048828125,-0.00048828125)">
   <path d="M 346,457 C 273,457 209,483 155,535 101,586 74,649 74,723 74,796 101,859 155,911 209,963 273,989 346,989 419,989 480,963 531,910 582,859 608,796 608,723 608,648 583,586 532,535 482,483 420,457 346,457 Z"/>
  </g>
  <g id="bullet-char-template(8211)" transform="scale(0.00048828125,-0.00048828125)">
   <path d="M -4,459 L 1135,459 1135,606 -4,606 -4,459 Z"/>
  </g>
 </defs>
 <defs class="TextEmbeddedBitmaps"/>
 <g>
  <g id="id2" class="Master_Slide">
   <g id="bg-id2" class="Background"/>
   <g id="bo-id2" class="BackgroundObjects"/>
  </g>
 </g>
 <g class="SlideGroup">
  <g>
   <g id="id1" class="Slide" clip-path="url(#presentation_clip_path)">
    <g class="Page">
     <g class="com.sun.star.drawing.PolyPolygonShape">
      <g id="id3">
       <path fill="rgb(0,0,0)" stroke="none" d="M 1,-1 L 1,0 1,0 0,0 1,-1 Z"/>
      </g>
     </g>
     <g class="com.sun.star.drawing.PolyPolygonShape">
      <g id="id4">
       <path fill="rgb(0,0,0)" stroke="none" d="M 0,-1 L 1,-1 1,0 0,0 0,-1 Z"/>
      </g>
     </g>
     <g class="com.sun.star.drawing.PolyPolygonShape">
      <g id="id5">
       <path fill="rgb(0,0,0)" stroke="none" d="M 0,0 L 0,0 0,-1 1,0 0,0 Z M 1,0 L 0,-1 0,0 1,0 Z"/>
      </g>
     </g>
     <g class="com.sun.star.drawing.PolyPolygonShape">
      <g id="id6">
       <path fill="rgb(0,0,0)" stroke="none" d="M 2,0 L 1,0 1,0 1,0 0,0 0,0 1,0 1,-1 1,-1 2,0 Z"/>
      </g>
     </g>
     <g class="com.sun.star.drawing.PolyPolygonShape">
      <g id="id7">
       <path fill="rgb(0,0,0)" stroke="none" d="M 0,0 L 0,-1 0,-1 0,-1 0,-1 0,-1 0,-1 0,-1 0,-1 0,-1 0,-1 0,-1 0,-1 0,-1 0,-1 0,-1 0,-1 0,-1 0,-1 0,-1 0,0 Z"/>
      </g>
     </g>
     <g class="com.sun.star.drawing.PolyPolygonShape">
      <g id="id8">
       <path fill="rgb(0,0,0)" stroke="none" d="M 0,0 L 0,0 0,0 0,-1 0,-1 0,-1 0,0 0,0 1,-1 1,-1 1,-1 1,-1 1,-1 0,0 Z"/>
      </g>
     </g>
     <g class="com.sun.star.drawing.ClosedBezierShape">
      <g id="id9">
       <path fill="rgb(0,0,0)" stroke="none" d="M 1,0 C 0,0 0,0 0,0 L 0,0 C 0,-1 0,-1 0,-1 L 1,-1 1,-1 1,0 Z"/>
      </g>
     </g>
     <g class="com.sun.star.drawing.PolyPolygonShape">
      <g id="id10">
       <path fill="rgb(0,0,0)" stroke="none" d="M 0,0 L 0,0 Z"/>
      </g>
     </g>
     <g class="com.sun.star.drawing.PolyPolygonShape">
      <g id="id11">
       <path fill="rgb(0,0,0)" stroke="none" d="M 0,0 L 1,0 1,0 0,0 Z"/>
      </g>
     </g>
     <g class="com.sun.star.drawing.PolyPolygonShape">
      <g id="id12">
       <path fill="rgb(0,0,0)" stroke="none" d="M 2,-1 L 2,1 0,1 2,-1 Z"/>
      </g>
     </g>
     <g class="com.sun.star.drawing.PolyPolygonShape">
      <g id="id13">
       <path fill="rgb(0,0,0)" stroke="none" d="M 0,-1 L 2,-1 2,1 0,1 0,-1 Z"/>
      </g>
     </g>
     <g class="com.sun.star.drawing.PolyPolygonShape">
      <g id="id14">
       <path fill="rgb(0,0,0)" stroke="none" d="M 0,1 L 0,-1 2,1 0,1 Z M 2,1 L 0,-1 0,1 2,1 Z"/>
      </g>
     </g>
     <g class="com.sun.star.drawing.PolyPolygonShape">
      <g id="id15">
       <path fill="rgb(0,0,0)" stroke="none" d="M 3,1 L 2,1 0,1 2,1 2,-1 3,1 Z"/>
      </g>
     </g>
     <g class="com.sun.star.drawing.PolyPolygonShape">
      <g id="id16"/>
     </g>
     <g class="com.sun.star.drawing.PolyPolygonShape">
      <g id="id17">
       <path fill="rgb(0,0,0)" stroke="none" d="M 0,1 L 0,-1 0,1 2,-1 0,1 Z"/>
      </g>
     </g>
     <g class="com.sun.star.drawing.ClosedBezierShape">
      <g id="id18">
       <path fill="rgb(0,0,0)" stroke="none" d="M 2,1 C 0,1 0,1 0,1 0,-1 0,-1 0,-1 L 2,-1 2,1 Z"/>
      </g>
     </g>
     <g class="com.sun.star.drawing.PolyPolygonShape">
      <g id="id19">
       <path fill="rgb(0,0,0)" stroke="none" d="M 0,0 L 0,0 Z"/>
      </g>
     </g>
     <g class="com.sun.star.drawing.PolyPolygonShape">
      <g id="id20"/>
     </g>
     <g class="com.sun.star.drawing.PolyPolygonShape">
      <g id="id21">
       <path fill="rgb(0,0,0)" stroke="none" d="M 3,-1 L 3,2 0,2 3,-1 Z"/>
      </g>
     </g>
     <g class="com.sun.star.drawing.PolyPolygonShape">
      <g id="id22">
       <path fill="rgb(0,0,0)" stroke="none" d="M 0,-1 L 3,-1 3,2 0,2 0,-1 Z"/>
      </g>
     </g>
     <g class="com.sun.star.drawing.PolyPolygonShape">
      <g id="id23">
       <path fill="rgb(0,0,0)" stroke="none" d="M 0,2 L 0,-1 3,2 0,2 Z M 3,2 L 0,-1 0,2 3,2 Z"/>
      </g>
     </g>
     <g class="com.sun.star.drawing.PolyPolygonShape">
      <g id="id24">
       <path fill="rgb(0,0,0)" stroke="none" d="M 4,2 L 3,2 0,2 3,2 3,-1 4,2 Z"/>
      </g>
     </g>
     <g class="com.sun.star.drawing.PolyPolygonShape">
      <g id="id25">
       <path fill="rgb(0,0,0)" stroke="none" d="M 0,2 L 0,-1 0,2 3,-1 0,2 Z"/>
      </g>
     </g>
     <g class="com.sun.star.drawing.ClosedBezierShape">
      <g id="id26">
       <path fill="rgb(0,0,0)" stroke="none" d="M 3,2 C 0,2 0,2 0,2 0,-1 0,-1 0,-1 L 3,-1 3,2 Z"/>
      </g>
     </g>
     <g class="com.sun.star.drawing.PolyPolygonShape">
      <g id="id27">
       <path fill="rgb(0,0,0)" stroke="none" d="M 0,0 L 0,0 Z"/>
      </g>
     </g>
     <g class="com.sun.star.drawing.LineShape">
      <g id="id28">
       <path fill="none" stroke="rgb(0,0,0)" stroke-width="10" stroke-linejoin="round" d="M 411,230 L 411,240"/>
       <path fill="none" stroke="rgb(0,0,0)" stroke-width="10" stroke-linejoin="round" d="M 411,270 L 412,320"/>
       <path fill="none" stroke="rgb(0,0,0)" stroke-width="10" stroke-linejoin="round" d="M 412,350 L 412,360"/>
       <path fill="none" stroke="rgb(0,0,0)" stroke-width="10" stroke-linejoin="round" d="M 412,390 L 413,440"/>
       <path fill="none" stroke="rgb(0,0,0)" stroke-width="10" stroke-linejoin="round" d="M 413,470 L 413,480"/>
       <path fill="none" stroke="rgb(0,0,0)" stroke-width="10" stroke-linejoin="round" d="M 413,510 L 414,560"/>
       <path fill="none" stroke="rgb(0,0,0)" stroke-width="10" stroke-linejoin="round" d="M 414,590 L 414,600"/>
       <path fill="none" stroke="rgb(0,0,0)" stroke-width="10" stroke-linejoin="round" d="M 414,630 L 415,680"/>
       <path fill="none" stroke="rgb(0,0,0)" stroke-width="10" stroke-linejoin="round" d="M 415,710 L 415,720"/>
       <path fill="none" stroke="rgb(0,0,0)" stroke-width="10" stroke-linejoin="round" d="M 415,750 L 416,800"/>
       <path fill="none" stroke="rgb(0,0,0)" stroke-width="10" stroke-linejoin="round" d="M 416,830 L 416,840"/>
       <path fill="none" stroke="rgb(0,0,0)" stroke-width="10" stroke-linejoin="round" d="M 416,870 L 417,920"/>
       <path fill="none" stroke="rgb(0,0,0)" stroke-width="10" stroke-linejoin="round" d="M 417,950 L 417,960"/>
      </g>
     </g>
     <g class="com.sun.star.drawing.LineShape">
      <g id="id29">
       <path fill="none" stroke="rgb(0,0,0)" stroke-width="10" stroke-linejoin="round" d="M 217,767 L 227,767"/>
       <path fill="none" stroke="rgb(0,0,0)" stroke-width="10" stroke-linejoin="round" d="M 257,767 L 307,768"/>
       <path fill="none" stroke="rgb(0,0,0)" stroke-width="10" stroke-linejoin="round" d="M 337,768 L 347,768"/>
       <path fill="none" stroke="rgb(0,0,0)" stroke-width="10" stroke-linejoin="round" d="M 377,768 L 427,769"/>
       <path fill="none" stroke="rgb(0,0,0)" stroke-width="10" stroke-linejoin="round" d="M 457,769 L 467,769"/>
       <path fill="none" stroke="rgb(0,0,0)" stroke-width="10" stroke-linejoin="round" d="M 497,769 L 547,770"/>
       <path fill="none" stroke="rgb(0,0,0)" stroke-width="10" stroke-linejoin="round" d="M 577,770 L 587,770"/>
       <path fill="none" stroke="rgb(0,0,0)" stroke-width="10" stroke-linejoin="round" d="M 617,770 L 667,771"/>
       <path fill="none" stroke="rgb(0,0,0)" stroke-width="10" stroke-linejoin="round" d="M 697,771 L 707,771"/>
       <path fill="none" stroke="rgb(0,0,0)" stroke-width="10" stroke-linejoin="round" d="M 737,771 L 787,772"/>
       <path fill="none" stroke="rgb(0,0,0)" stroke-width="10" stroke-linejoin="round" d="M 817,772 L 827,772"/>
       <path fill="none" stroke="rgb(0,0,0)" stroke-width="10" stroke-linejoin="round" d="M 857,772 L 907,773"/>
       <path fill="none" stroke="rgb(0,0,0)" stroke-width="10" stroke-linejoin="round" d="M 937,773 L 947,773"/>
      </g>
     </g>
     <g class="com.sun.star.drawing.CustomShape">
      <g id="id30">
       <path fill="none" stroke="rgb(52,101,164)" stroke-width="20" stroke-linejoin="round" d="M 203,341 L 204,374 206,406 210,440 214,472 222,504 231,535 241,566 253,597 267,626 282,655 298,683 316,710 335,736 357,761 378,785 402,808 426,829 451,849 478,867 505,885 535,901 564,916 594,928 624,940 656,949 687,956 719,962 752,968 784,970 817,971 850,971 845,604 831,605 816,605 802,604 789,602 775,599 761,596 748,591 735,587 723,582 710,575 698,569 686,562 675,554 664,545 654,536 644,526 635,516 626,506 618,494 610,484 603,471 597,459 591,446 586,434 582,420 579,407 575,394 574,380 571,366 571,352 571,338 203,341 Z"/>
      </g>
     </g>
    </g>
   </g>
  </g>
 </g>
</svg>