<?xml version="1.0" encoding="UTF-8"?>
<!DOCTYPE svg PUBLIC "-//W3C//DTD SVG 1.1//EN" "http://www.w3.org/Graphics/SVG/1.1/DTD/svg11.dtd">
<svg version="1.2" width="11.29mm" height="11.29mm" viewBox="0 0 1129 1129" preserveAspectRatio="xMidYMid" fill-rule="evenodd" stroke-width="28.222" stroke-linejoin="round" xmlns="http://www.w3.org/2000/svg" xmlns:ooo="http://xml.openoffice.org/svg/export" xmlns:xlink="http://www.w3.org/1999/xlink" xmlns:presentation="http://sun.com/xmlns/staroffice/presentation" xmlns:smil="http://www.w3.org/2001/SMIL20/" xmlns:anim="urn:oasis:names:tc:opendocument:xmlns:animation:1.0" xml:space="preserve">
 <defs class="ClipPathGroup">
  <clipPath id="presentation_clip_path" clipPathUnits="userSpaceOnUse">
   <rect x="0" y="0" width="1129" height="1129"/>
  </clipPath>
 </defs>
 <defs class="TextShapeIndex">
  <g ooo:slide="id1" ooo:id-list="id3 id4 id5 id6 id7 id8 id9 id10 id11 id12 id13 id14 id15 id16 id17 id18 id19 id20 id21 id22 id23 id24 id25 id26 id27 id28 id29 id30 id31 id32"/>
 </defs>
 <defs class="EmbeddedBulletChars">
  <g id="bullet-char-template(57356)" transform="scale(0.00048828125,-0.00048828125)">
   <path d="M 580,1141 L 1163,571 580,0 -4,571 580,1141 Z"/>
  </g>
  <g id="bullet-char-template(57354)" transform="scale(0.00048828125,-0.00048828125)">
   <path d="M 8,1128 L 1137,1128 1137,0 8,0 8,1128 Z"/>
  </g>
  <g id="bullet-char-template(10146)" transform="scale(0.00048828125,-0.00048828125)">
   <path d="M 174,0 L 602,739 174,1481 1456,739 174,0 Z M 1358,739 L 309,1346 659,739 1358,739 Z"/>
  </g>
  <g id="bullet-char-template(10132)" transform="scale(0.00048828125,-0.00048828125)">
   <path d="M 2015,739 L 1276,0 717,0 1260,543 174,543 174,936 1260,936 717,1481 1274,1481 2015,739 Z"/>
  </g>
  <g id="bullet-char-template(10007)" transform="scale(0.00048828125,-0.00048828125)">
   <path d="M 0,-2 C -7,14 -16,27 -25,37 L 356,567 C 262,823 215,952 215,954 215,979 228,992 255,992 264,992 276,990 289,987 310,991 331,999 354,1012 L 381,999 492,748 772,1049 836,1024 860,1049 C 881,1039 901,1025 922,1006 886,937 835,863 770,784 769,783 710,716 594,584 L 774,223 C 774,196 753,168 711,139 L 727,119 C 717,90 699,76 672,76 641,76 570,178 457,381 L 164,-76 C 142,-110 111,-127 72,-127 30,-127 9,-110 8,-76 1,-67 -2,-52 -2,-32 -2,-23 -1,-13 0,-2 Z"/>
  </g>
  <g id="bullet-char-template(10004)" transform="scale(0.00048828125,-0.00048828125)">
   <path d="M 285,-33 C 182,-33 111,30 74,156 52,228 41,333 41,471 41,549 55,616 82,672 116,743 169,778 240,778 293,778 328,747 346,684 L 369,508 C 377,444 397,411 428,410 L 1163,1116 C 1174,1127 1196,1133 1229,1133 1271,1133 1292,1118 1292,1087 L 1292,965 C 1292,929 1282,901 1262,881 L 442,47 C 390,-6 338,-33 285,-33 Z"/>
  </g>
  <g id="bullet-char-template(9679)" transform="scale(0.00048828125,-0.00048828125)">
   <path d="M 813,0 C 632,0 489,54 383,161 276,268 223,411 223,592 223,773 276,916 383,1023 489,1130 632,1184 813,1184 992,1184 1136,1130 1245,1023 1353,916 1407,772 1407,592 1407,412 1353,268 1245,161 1136,54 992,0 813,0 Z"/>
  </g>
  <g id="bullet-char-template(8226)" transform="scale(0.00048828125,-0.00048828125)">
   <path d="M 346,457 C 273,457 209,483 155,535 101,586 74,649 74,723 74,796 101,859 155,911 209,963 273,989 346,989 419,989 480,963 531,910 582,859 608,796 608,723 608,648 583,586 532,535 482,483 420,457 346,457 Z"/>
  </g>
  <g id="bullet-char-template(8211)" transform="scale(0.00048828125,-0.00048828125)">
   <path d="M -4,459 L 1135,459 1135,606 -4,606 -4,459 Z"/>
  </g>
 </defs>
 <defs class="TextEmbeddedBitmaps"/>
 <g>
  <g id="id2" class="Master_Slide">
   <g id="bg-id2" class="Background"/>
   <g id="bo-id2" class="BackgroundObjects"/>
  </g>
 </g>
 <g class="SlideGroup">
  <g>
   <g id="id1" class="Slide" clip-path="url(#presentation_clip_path)">
    <g class="Page">
     <g class="com.sun.star.drawing.PolyPolygonShape">
      <g id="id3">
       <rect class="BoundingBox" stroke="none" fill="none" x="0" y="-1" width="3" height="3"/>
       <path fill="rgb(0,0,0)" stroke="none" d="M 2,-1 L 2,1 0,1 2,-1 Z"/>
      </g>
     </g>
     <g class="com.sun.star.drawing.PolyPolygonShape">
      <g id="id4">
       <rect class="BoundingBox" stroke="none" fill="none" x="0" y="-1" width="3" height="3"/>
       <path fill="rgb(0,0,0)" stroke="none" d="M 0,-1 L 2,-1 2,1 0,1 0,-1 Z"/>
      </g>
     </g>
     <g class="com.sun.star.drawing.PolyPolygonShape">
      <g id="id5">
       <rect class="BoundingBox" stroke="none" fill="none" x="0" y="-1" width="3" height="3"/>
       <path fill="rgb(0,0,0)" stroke="none" d="M 0,1 L 0,-1 2,1 0,1 Z M 2,1 L 0,-1 0,1 2,1 Z"/>
      </g>
     </g>
     <g class="com.sun.star.drawing.PolyPolygonShape">
      <g id="id6">
       <rect class="BoundingBox" stroke="none" fill="none" x="0" y="-1" width="4" height="3"/>
       <path fill="rgb(0,0,0)" stroke="none" d="M 3,1 L 2,1 0,1 2,1 2,-1 3,1 Z"/>
      </g>
     </g>
     <g class="com.sun.star.drawing.PolyPolygonShape">
      <g id="id7">
       <rect class="BoundingBox" stroke="none" fill="none" x="0" y="-1" width="1" height="2"/>
      </g>
     </g>
     <g class="com.sun.star.drawing.PolyPolygonShape">
      <g id="id8">
       <rect class="BoundingBox" stroke="none" fill="none" x="0" y="-1" width="3" height="3"/>
       <path fill="rgb(0,0,0)" stroke="none" d="M 0,1 L 0,-1 0,1 2,-1 0,1 Z"/>
      </g>
     </g>
     <g class="com.sun.star.drawing.ClosedBezierShape">
      <g id="id9">
       <rect class="BoundingBox" stroke="none" fill="none" x="0" y="-1" width="3" height="3"/>
       <path fill="rgb(0,0,0)" stroke="none" d="M 2,1 C 0,1 0,1 0,1 0,-1 0,-1 0,-1 L 2,-1 2,1 Z"/>
      </g>
     </g>
     <g class="com.sun.star.drawing.PolyPolygonShape">
      <g id="id10">
       <rect class="BoundingBox" stroke="none" fill="none" x="0" y="0" width="1" height="1"/>
       <path fill="rgb(0,0,0)" stroke="none" d="M 0,0 L 0,0 Z"/>
      </g>
     </g>
     <g class="com.sun.star.drawing.PolyPolygonShape">
      <g id="id11">
       <rect class="BoundingBox" stroke="none" fill="none" x="0" y="0" width="2" height="1"/>
      </g>
     </g>
     <g class="com.sun.star.drawing.PolyPolygonShape">
      <g id="id12">
       <rect class="BoundingBox" stroke="none" fill="none" x="0" y="-1" width="4" height="4"/>
       <path fill="rgb(0,0,0)" stroke="none" d="M 3,-1 L 3,2 0,2 3,-1 Z"/>
      </g>
     </g>
     <g class="com.sun.star.drawing.PolyPolygonShape">
      <g id="id13">
       <rect class="BoundingBox" stroke="none" fill="none" x="0" y="-1" width="4" height="4"/>
       <path fill="rgb(0,0,0)" stroke="none" d="M 0,-1 L 3,-1 3,2 0,2 0,-1 Z"/>
      </g>
     </g>
     <g class="com.sun.star.drawing.PolyPolygonShape">
      <g id="id14">
       <rect class="BoundingBox" stroke="none" fill="none" x="0" y="-1" width="4" height="4"/>
       <path fill="rgb(0,0,0)" stroke="none" d="M 0,2 L 0,-1 3,2 0,2 Z M 3,2 L 0,-1 0,2 3,2 Z"/>
      </g>
     </g>
     <g class="com.sun.star.drawing.PolyPolygonShape">
      <g id="id15">
       <rect class="BoundingBox" stroke="none" fill="none" x="0" y="-1" width="5" height="4"/>
       <path fill="rgb(0,0,0)" stroke="none" d="M 4,2 L 3,2 0,2 3,2 3,-1 4,2 Z"/>
      </g>
     </g>
     <g class="com.sun.star.drawing.PolyPolygonShape">
      <g id="id16">
       <rect class="BoundingBox" stroke="none" fill="none" x="0" y="-1" width="4" height="4"/>
       <path fill="rgb(0,0,0)" stroke="none" d="M 0,2 L 0,-1 0,2 3,-1 0,2 Z"/>
      </g>
     </g>
     <g class="com.sun.star.drawing.ClosedBezierShape">
      <g id="id17">
       <rect class="BoundingBox" stroke="none" fill="none" x="0" y="-1" width="4" height="4"/>
       <path fill="rgb(0,0,0)" stroke="none" d="M 3,2 C 0,2 0,2 0,2 0,-1 0,-1 0,-1 L 3,-1 3,2 Z"/>
      </g>
     </g>
     <g class="com.sun.star.drawing.PolyPolygonShape">
      <g id="id18">
       <rect class="BoundingBox" stroke="none" fill="none" x="0" y="0" width="1" height="1"/>
       <path fill="rgb(0,0,0)" stroke="none" d="M 0,0 L 0,0 Z"/>
      </g>
     </g>
     <g class="com.sun.star.drawing.PolyPolygonShape">
      <g id="id19">
       <rect class="BoundingBox" stroke="none" fill="none" x="0" y="-1" width="5" height="5"/>
       <path fill="rgb(0,0,0)" stroke="none" d="M 4,-1 L 4,3 0,3 4,-1 Z"/>
      </g>
     </g>
     <g class="com.sun.star.drawing.PolyPolygonShape">
      <g id="id20">
       <rect class="BoundingBox" stroke="none" fill="none" x="0" y="-1" width="5" height="5"/>
       <path fill="rgb(0,0,0)" stroke="none" d="M 0,-1 L 4,-1 4,3 0,3 0,-1 Z"/>
      </g>
     </g>
     <g class="com.sun.star.drawing.PolyPolygonShape">
      <g id="id21">
       <rect class="BoundingBox" stroke="none" fill="none" x="0" y="-1" width="5" height="5"/>
       <path fill="rgb(0,0,0)" stroke="none" d="M 0,3 L 0,-1 4,3 0,3 Z M 4,3 L 0,-1 0,3 4,3 Z"/>
      </g>
     </g>
     <g class="com.sun.star.drawing.PolyPolygonShape">
      <g id="id22">
       <rect class="BoundingBox" stroke="none" fill="none" x="0" y="-1" width="6" height="5"/>
       <path fill="rgb(0,0,0)" stroke="none" d="M 5,3 L 4,3 0,3 4,3 4,-1 5,3 Z"/>
      </g>
     </g>
     <g class="com.sun.star.drawing.PolyPolygonShape">
      <g id="id23">
       <rect class="BoundingBox" stroke="none" fill="none" x="0" y="-1" width="5" height="5"/>
       <path fill="rgb(0,0,0)" stroke="none" d="M 0,3 L 0,-1 0,3 4,-1 0,3 Z"/>
      </g>
     </g>
     <g class="com.sun.star.drawing.ClosedBezierShape">
      <g id="id24">
       <rect class="BoundingBox" stroke="none" fill="none" x="0" y="-1" width="5" height="5"/>
       <path fill="rgb(0,0,0)" stroke="none" d="M 4,3 C 0,3 0,3 0,3 0,-1 0,-1 0,-1 L 4,-1 4,3 Z"/>
      </g>
     </g>
     <g class="com.sun.star.drawing.PolyPolygonShape">
      <g id="id25">
       <rect class="BoundingBox" stroke="none" fill="none" x="0" y="0" width="1" height="1"/>
       <path fill="rgb(0,0,0)" stroke="none" d="M 0,0 L 0,0 Z"/>
      </g>
     </g>
     <g class="com.sun.star.drawing.LineShape">
      <g id="id26">
       <rect class="BoundingBox" stroke="none" fill="none" x="173" y="173" width="155" height="655"/>
       <path fill="none" stroke="rgb(255,0,0)" stroke-width="53" stroke-linejoin="round" d="M 200,200 L 300,800"/>
      </g>
     </g>
     <g class="com.sun.star.drawing.LineShape">
      <g id="id27">
       <rect class="BoundingBox" stroke="none" fill="none" x="273" y="173" width="555" height="655"/>
       <path fill="none" stroke="rgb(255,0,0)" stroke-width="53" stroke-linejoin="round" d="M 800,200 L 300,800"/>
      </g>
     </g>
     <g class="com.sun.star.drawing.LineShape">
      <g id="id28">
       <rect class="BoundingBox" stroke="none" fill="none" x="773" y="173" width="255" height="755"/>
       <path fill="none" stroke="rgb(255,0,0)" stroke-width="53" stroke-linejoin="round" d="M 1000,900 L 800,200"/>
      </g>
     </g>
     <g class="com.sun.star.drawing.CustomShape">
      <g id="id29">
       <rect class="BoundingBox" stroke="none" fill="none" x="199" y="699" width="204" height="204"/>
       <path fill="rgb(255,0,0)" stroke="none" d="M 299,700 C 355,700 399,743 399,799 399,855 355,899 299,899 243,899 200,855 200,799 200,743 243,700 299,700 Z M 200,700 L 200,700 Z M 401,901 L 401,901 Z"/>
       <path fill="none" stroke="rgb(255,0,0)" d="M 299,700 C 355,700 399,743 399,799 399,855 355,899 299,899 243,899 200,855 200,799 200,743 243,700 299,700 Z"/>
       <path fill="none" stroke="rgb(255,0,0)" d="M 200,700 L 200,700 Z"/>
       <path fill="none" stroke="rgb(255,0,0)" d="M 401,901 L 401,901 Z"/>
      </g>
     </g>
     <g class="com.sun.star.drawing.CustomShape">
      <g id="id30">
       <rect class="BoundingBox" stroke="none" fill="none" x="99" y="99" width="204" height="204"/>
       <path fill="rgb(255,0,0)" stroke="none" d="M 199,100 C 255,100 299,143 299,199 299,255 255,299 199,299 143,299 100,255 100,199 100,143 143,100 199,100 Z M 100,100 L 100,100 Z M 301,301 L 301,301 Z"/>
       <path fill="none" stroke="rgb(255,0,0)" d="M 199,100 C 255,100 299,143 299,199 299,255 255,299 199,299 143,299 100,255 100,199 100,143 143,100 199,100 Z"/>
       <path fill="none" stroke="rgb(255,0,0)" d="M 100,100 L 100,100 Z"/>
       <path fill="none" stroke="rgb(255,0,0)" d="M 301,301 L 301,301 Z"/>
      </g>
     </g>
     <g class="com.sun.star.drawing.CustomShape">
      <g id="id31">
       <rect class="BoundingBox" stroke="none" fill="none" x="699" y="99" width="204" height="204"/>
       <path fill="rgb(255,0,0)" stroke="none" d="M 799,100 C 855,100 899,143 899,199 899,255 855,299 799,299 743,299 700,255 700,199 700,143 743,100 799,100 Z M 700,100 L 700,100 Z M 901,301 L 901,301 Z"/>
       <path fill="none" stroke="rgb(255,0,0)" d="M 799,100 C 855,100 899,143 899,199 899,255 855,299 799,299 743,299 700,255 700,199 700,143 743,100 799,100 Z"/>
       <path fill="none" stroke="rgb(255,0,0)" d="M 700,100 L 700,100 Z"/>
       <path fill="none" stroke="rgb(255,0,0)" d="M 901,301 L 901,301 Z"/>
      </g>
     </g>
     <g class="com.sun.star.drawing.CustomShape">
      <g id="id32">
       <rect class="BoundingBox" stroke="none" fill="none" x="899" y="799" width="204" height="204"/>
       <path fill="rgb(255,0,0)" stroke="none" d="M 999,800 C 1055,800 1099,843 1099,899 1099,955 1055,999 999,999 943,999 900,955 900,899 900,843 943,800 999,800 Z M 900,800 L 900,800 Z M 1101,1001 L 1101,1001 Z"/>
       <path fill="none" stroke="rgb(255,0,0)" d="M 999,800 C 1055,800 1099,843 1099,899 1099,955 1055,999 999,999 943,999 900,955 900,899 900,843 943,800 999,800 Z"/>
       <path fill="none" stroke="rgb(255,0,0)" d="M 900,800 L 900,800 Z"/>
       <path fill="none" stroke="rgb(255,0,0)" d="M 1101,1001 L 1101,1001 Z"/>
      </g>
     </g>
    </g>
   </g>
  </g>
 </g>
</svg>