<?xml version="1.0" encoding="UTF-8"?>

<svg version="1.2" baseProfile="tiny" width="11.29mm" height="11.29mm" viewBox="0 0 1129 1129" preserveAspectRatio="xMidYMid" fill-rule="evenodd" clip-path="url(#presentation_clip_path)" stroke-width="28.222" stroke-linejoin="round" xmlns="http://www.w3.org/2000/svg" xmlns:ooo="http://xml.openoffice.org/svg/export" xmlns:xlink="http://www.w3.org/1999/xlink" xml:space="preserve">
 <defs class="ClipPathGroup">
  <clipPath id="presentation_clip_path" clipPathUnits="userSpaceOnUse">
   <rect x="0" y="0" width="1129" height="1129"/>
  </clipPath>
 </defs>
 <defs class="TextShapeIndex">
  <g ooo:slide="id1" ooo:id-list="id3 id4 id5 id6 id7 id8 id9 id10 id11 id12 id13 id14 id15 id16 id17 id18 id19 id20 id21 id22 id23 id24 id25 id26 id27 id28 id29 id30 id31 id32 id33 id34 id35 id36 id37 id38 id39 id40 id41 id42 id43 id44 id45 id46 id47 id48 id49 id50 id51 id52 id53 id54 id55 id56 id57 id58 id59 id60 id61 id62 id63 id64 id65 id66 id67 id68 id69 id70 id71 id72 id73 id74 id75 id76 id77 id78 id79 id80 id81 id82 id83 id84 id85 id86 id87 id88"/>
 </defs>
 <defs class="EmbeddedBulletChars">
  <g id="bullet-char-template(57356)" transform="scale(0.00048828125,-0.00048828125)">
   <path d="M 580,1141 L 1163,571 580,0 -4,571 580,1141 Z"/>
  </g>
  <g id="bullet-char-template(57354)" transform="scale(0.00048828125,-0.00048828125)">
   <path d="M 8,1128 L 1137,1128 1137,0 8,0 8,1128 Z"/>
  </g>
  <g id="bullet-char-template(10146)" transform="scale(0.00048828125,-0.00048828125)">
   <path d="M 174,0 L 602,739 174,1481 1456,739 174,0 Z M 1358,739 L 309,1346 659,739 1358,739 Z"/>
  </g>
  <g id="bullet-char-template(10132)" transform="scale(0.00048828125,-0.00048828125)">
   <path d="M 2015,739 L 1276,0 717,0 1260,543 174,543 174,936 1260,936 717,1481 1274,1481 2015,739 Z"/>
  </g>
  <g id="bullet-char-template(10007)" transform="scale(0.00048828125,-0.00048828125)">
   <path d="M 0,-2 C -7,14 -16,27 -25,37 L 356,567 C 262,823 215,952 215,954 215,979 228,992 255,992 264,992 276,990 289,987 310,991 331,999 354,1012 L 381,999 492,748 772,1049 836,1024 860,1049 C 881,1039 901,1025 922,1006 886,937 835,863 770,784 769,783 710,716 594,584 L 774,223 C 774,196 753,168 711,139 L 727,119 C 717,90 699,76 672,76 641,76 570,178 457,381 L 164,-76 C 142,-110 111,-127 72,-127 30,-127 9,-110 8,-76 1,-67 -2,-52 -2,-32 -2,-23 -1,-13 0,-2 Z"/>
  </g>
  <g id="bullet-char-template(10004)" transform="scale(0.00048828125,-0.00048828125)">
   <path d="M 285,-33 C 182,-33 111,30 74,156 52,228 41,333 41,471 41,549 55,616 82,672 116,743 169,778 240,778 293,778 328,747 346,684 L 369,508 C 377,444 397,411 428,410 L 1163,1116 C 1174,1127 1196,1133 1229,1133 1271,1133 1292,1118 1292,1087 L 1292,965 C 1292,929 1282,901 1262,881 L 442,47 C 390,-6 338,-33 285,-33 Z"/>
  </g>
  <g id="bullet-char-template(9679)" transform="scale(0.00048828125,-0.00048828125)">
   <path d="M 813,0 C 632,0 489,54 383,161 276,268 223,411 223,592 223,773 276,916 383,1023 489,1130 632,1184 813,1184 992,1184 1136,1130 1245,1023 1353,916 1407,772 1407,592 1407,412 1353,268 1245,161 1136,54 992,0 813,0 Z"/>
  </g>
  <g id="bullet-char-template(8226)" transform="scale(0.00048828125,-0.00048828125)">
   <path d="M 346,457 C 273,457 209,483 155,535 101,586 74,649 74,723 74,796 101,859 155,911 209,963 273,989 346,989 419,989 480,963 531,910 582,859 608,796 608,723 608,648 583,586 532,535 482,483 420,457 346,457 Z"/>
  </g>
  <g id="bullet-char-template(8211)" transform="scale(0.00048828125,-0.00048828125)">
   <path d="M -4,459 L 1135,459 1135,606 -4,606 -4,459 Z"/>
  </g>
 </defs>
 <defs class="TextEmbeddedBitmaps"/>
 <g>
  <g id="id2" class="Master_Slide">
   <g id="bg-id2" class="Background"/>
   <g id="bo-id2" class="BackgroundObjects"/>
  </g>
 </g>
 <g class="SlideGroup">
  <g>
   <g id="id1" class="Slide" clip-path="url(#presentation_clip_path)">
    <g class="Page">
     <g class="com.sun.star.drawing.PolyPolygonShape">
      <g id="id3">
       <path fill="rgb(0,0,0)" stroke="none" d="M 1,-1 L 1,0 1,0 0,0 1,-1 Z"/>
      </g>
     </g>
     <g class="com.sun.star.drawing.PolyPolygonShape">
      <g id="id4">
       <path fill="rgb(0,0,0)" stroke="none" d="M 0,-1 L 1,-1 1,0 0,0 0,-1 Z"/>
      </g>
     </g>
     <g class="com.sun.star.drawing.PolyPolygonShape">
      <g id="id5">
       <path fill="rgb(0,0,0)" stroke="none" d="M 0,0 L 0,0 0,-1 1,0 0,0 Z M 1,0 L 0,-1 0,0 1,0 Z"/>
      </g>
     </g>
     <g class="com.sun.star.drawing.PolyPolygonShape">
      <g id="id6">
       <path fill="rgb(0,0,0)" stroke="none" d="M 2,0 L 1,0 1,0 1,0 0,0 0,0 1,0 1,-1 1,-1 2,0 Z"/>
      </g>
     </g>
     <g class="com.sun.star.drawing.PolyPolygonShape">
      <g id="id7">
       <path fill="rgb(0,0,0)" stroke="none" d="M 0,0 L 0,-1 0,-1 0,-1 0,-1 0,-1 0,-1 0,-1 0,-1 0,-1 0,-1 0,-1 0,-1 0,-1 0,-1 0,-1 0,-1 0,-1 0,-1 0,-1 0,0 Z"/>
      </g>
     </g>
     <g class="com.sun.star.drawing.PolyPolygonShape">
      <g id="id8">
       <path fill="rgb(0,0,0)" stroke="none" d="M 0,0 L 0,0 0,0 0,-1 0,-1 0,-1 0,0 0,0 1,-1 1,-1 1,-1 1,-1 1,-1 0,0 Z"/>
      </g>
     </g>
     <g class="com.sun.star.drawing.ClosedBezierShape">
      <g id="id9">
       <path fill="rgb(0,0,0)" stroke="none" d="M 1,0 C 0,0 0,0 0,0 L 0,0 C 0,-1 0,-1 0,-1 L 1,-1 1,-1 1,0 Z"/>
      </g>
     </g>
     <g class="com.sun.star.drawing.PolyPolygonShape">
      <g id="id10">
       <path fill="rgb(0,0,0)" stroke="none" d="M 0,0 L 0,0 Z"/>
      </g>
     </g>
     <g class="com.sun.star.drawing.PolyPolygonShape">
      <g id="id11">
       <path fill="rgb(0,0,0)" stroke="none" d="M 0,0 L 1,0 1,0 0,0 Z"/>
      </g>
     </g>
     <g class="com.sun.star.drawing.ClosedBezierShape">
      <g id="id12">
       <path fill="rgb(114,159,207)" stroke="none" d="M 108,913 C 156,946 218,939 245,900 L 395,678 C 422,639 405,578 356,545 308,513 245,519 218,559 L 69,780 C 42,820 60,881 108,913 Z M 196,972 L 196,972 Z M 268,485 L 268,485 Z"/>
      </g>
     </g>
     <g class="com.sun.star.drawing.ClosedBezierShape">
      <g id="id13">
       <path fill="none" stroke="rgb(52,101,164)" stroke-width="28" stroke-linejoin="round" d="M 108,912 C 156,946 218,939 245,899 L 395,678 C 422,639 405,578 356,545 308,512 245,519 218,559 L 69,779 C 42,819 60,880 108,912 Z"/>
      </g>
     </g>
     <g class="com.sun.star.drawing.PolyPolygonShape">
      <g id="id14"/>
     </g>
     <g class="com.sun.star.drawing.PolyPolygonShape">
      <g id="id15"/>
     </g>
     <g class="com.sun.star.drawing.ClosedBezierShape">
      <g id="id16">
       <path fill="rgb(165,195,226)" stroke="none" d="M 108,913 C 156,946 218,939 245,900 273,860 256,800 207,767 159,735 96,740 69,780 42,820 60,881 108,913 Z M 196,972 L 196,972 Z M 269,485 L 269,485 Z"/>
      </g>
     </g>
     <g class="com.sun.star.drawing.ClosedBezierShape">
      <g id="id17">
       <path fill="none" stroke="rgb(52,101,164)" stroke-width="28" stroke-linejoin="round" d="M 108,913 C 156,946 218,939 246,900 273,860 256,799 207,766 159,734 96,739 69,779 42,819 60,881 108,913 Z"/>
      </g>
     </g>
     <g class="com.sun.star.drawing.PolyPolygonShape">
      <g id="id18"/>
     </g>
     <g class="com.sun.star.drawing.PolyPolygonShape">
      <g id="id19"/>
     </g>
     <g class="com.sun.star.drawing.ClosedBezierShape">
      <g id="id20">
       <path fill="rgb(114,159,207)" stroke="none" d="M 720,483 C 684,523 683,583 718,615 L 915,789 C 950,820 1010,813 1046,773 1082,733 1082,673 1047,641 L 850,466 C 815,435 756,442 720,483 Z M 654,557 L 654,557 Z M 1112,699 L 1112,699 Z"/>
      </g>
     </g>
     <g class="com.sun.star.drawing.ClosedBezierShape">
      <g id="id21">
       <path fill="none" stroke="rgb(52,101,164)" stroke-width="28" stroke-linejoin="round" d="M 720,483 C 684,523 683,583 718,615 L 914,789 C 949,820 1009,813 1046,773 1082,733 1082,673 1047,641 L 850,466 C 815,435 756,442 720,483 Z"/>
      </g>
     </g>
     <g class="com.sun.star.drawing.PolyPolygonShape">
      <g id="id22"/>
     </g>
     <g class="com.sun.star.drawing.PolyPolygonShape">
      <g id="id23"/>
     </g>
     <g class="com.sun.star.drawing.ClosedBezierShape">
      <g id="id24">
       <path fill="rgb(165,195,226)" stroke="none" d="M 720,483 C 684,524 683,583 718,615 754,647 813,639 849,599 886,558 887,498 850,466 815,435 756,442 720,483 Z M 654,557 L 654,557 Z M 1112,699 L 1112,699 Z"/>
      </g>
     </g>
     <g class="com.sun.star.drawing.ClosedBezierShape">
      <g id="id25">
       <path fill="none" stroke="rgb(52,101,164)" stroke-width="28" stroke-linejoin="round" d="M 720,483 C 684,524 683,583 718,615 754,647 813,639 849,599 886,558 887,498 850,466 815,435 756,442 720,483 Z"/>
      </g>
     </g>
     <g class="com.sun.star.drawing.PolyPolygonShape">
      <g id="id26"/>
     </g>
     <g class="com.sun.star.drawing.PolyPolygonShape">
      <g id="id27"/>
     </g>
     <g class="com.sun.star.drawing.PolyPolygonShape">
      <g id="id28">
       <path fill="rgb(0,0,0)" stroke="none" d="M 2,-1 L 2,1 0,1 2,-1 Z"/>
      </g>
     </g>
     <g class="com.sun.star.drawing.PolyPolygonShape">
      <g id="id29">
       <path fill="rgb(0,0,0)" stroke="none" d="M 0,-1 L 2,-1 2,1 0,1 0,-1 Z"/>
      </g>
     </g>
     <g class="com.sun.star.drawing.PolyPolygonShape">
      <g id="id30">
       <path fill="rgb(0,0,0)" stroke="none" d="M 0,1 L 0,-1 2,1 0,1 Z M 2,1 L 0,-1 0,1 2,1 Z"/>
      </g>
     </g>
     <g class="com.sun.star.drawing.PolyPolygonShape">
      <g id="id31">
       <path fill="rgb(0,0,0)" stroke="none" d="M 3,1 L 2,1 0,1 2,1 2,-1 3,1 Z"/>
      </g>
     </g>
     <g class="com.sun.star.drawing.PolyPolygonShape">
      <g id="id32"/>
     </g>
     <g class="com.sun.star.drawing.PolyPolygonShape">
      <g id="id33">
       <path fill="rgb(0,0,0)" stroke="none" d="M 0,1 L 0,-1 0,1 2,-1 0,1 Z"/>
      </g>
     </g>
     <g class="com.sun.star.drawing.ClosedBezierShape">
      <g id="id34">
       <path fill="rgb(0,0,0)" stroke="none" d="M 2,1 C 0,1 0,1 0,1 0,-1 0,-1 0,-1 L 2,-1 2,1 Z"/>
      </g>
     </g>
     <g class="com.sun.star.drawing.PolyPolygonShape">
      <g id="id35">
       <path fill="rgb(0,0,0)" stroke="none" d="M 0,0 L 0,0 Z"/>
      </g>
     </g>
     <g class="com.sun.star.drawing.PolyPolygonShape">
      <g id="id36"/>
     </g>
     <g class="com.sun.star.drawing.PolyPolygonShape">
      <g id="id37">
       <path fill="rgb(0,0,0)" stroke="none" d="M 3,-1 L 3,2 0,2 3,-1 Z"/>
      </g>
     </g>
     <g class="com.sun.star.drawing.PolyPolygonShape">
      <g id="id38">
       <path fill="rgb(0,0,0)" stroke="none" d="M 0,-1 L 3,-1 3,2 0,2 0,-1 Z"/>
      </g>
     </g>
     <g class="com.sun.star.drawing.PolyPolygonShape">
      <g id="id39">
       <path fill="rgb(0,0,0)" stroke="none" d="M 0,2 L 0,-1 3,2 0,2 Z M 3,2 L 0,-1 0,2 3,2 Z"/>
      </g>
     </g>
     <g class="com.sun.star.drawing.PolyPolygonShape">
      <g id="id40">
       <path fill="rgb(0,0,0)" stroke="none" d="M 4,2 L 3,2 0,2 3,2 3,-1 4,2 Z"/>
      </g>
     </g>
     <g class="com.sun.star.drawing.PolyPolygonShape">
      <g id="id41">
       <path fill="rgb(0,0,0)" stroke="none" d="M 0,2 L 0,-1 0,2 3,-1 0,2 Z"/>
      </g>
     </g>
     <g class="com.sun.star.drawing.ClosedBezierShape">
      <g id="id42">
       <path fill="rgb(0,0,0)" stroke="none" d="M 3,2 C 0,2 0,2 0,2 0,-1 0,-1 0,-1 L 3,-1 3,2 Z"/>
      </g>
     </g>
     <g class="com.sun.star.drawing.PolyPolygonShape">
      <g id="id43">
       <path fill="rgb(0,0,0)" stroke="none" d="M 0,0 L 0,0 Z"/>
      </g>
     </g>
     <g class="com.sun.star.drawing.PolyPolygonShape">
      <g id="id44">
       <path fill="rgb(0,0,0)" stroke="none" d="M 4,-1 L 4,3 0,3 4,-1 Z"/>
      </g>
     </g>
     <g class="com.sun.star.drawing.PolyPolygonShape">
      <g id="id45">
       <path fill="rgb(0,0,0)" stroke="none" d="M 0,-1 L 4,-1 4,3 0,3 0,-1 Z"/>
      </g>
     </g>
     <g class="com.sun.star.drawing.PolyPolygonShape">
      <g id="id46">
       <path fill="rgb(0,0,0)" stroke="none" d="M 0,3 L 0,-1 4,3 0,3 Z M 4,3 L 0,-1 0,3 4,3 Z"/>
      </g>
     </g>
     <g class="com.sun.star.drawing.PolyPolygonShape">
      <g id="id47">
       <path fill="rgb(0,0,0)" stroke="none" d="M 5,3 L 4,3 0,3 4,3 4,-1 5,3 Z"/>
      </g>
     </g>
     <g class="com.sun.star.drawing.PolyPolygonShape">
      <g id="id48">
       <path fill="rgb(0,0,0)" stroke="none" d="M 0,3 L 0,-1 0,3 4,-1 0,3 Z"/>
      </g>
     </g>
     <g class="com.sun.star.drawing.ClosedBezierShape">
      <g id="id49">
       <path fill="rgb(0,0,0)" stroke="none" d="M 4,3 C 0,3 0,3 0,3 0,-1 0,-1 0,-1 L 4,-1 4,3 Z"/>
      </g>
     </g>
     <g class="com.sun.star.drawing.PolyPolygonShape">
      <g id="id50">
       <path fill="rgb(0,0,0)" stroke="none" d="M 0,0 L 0,0 Z"/>
      </g>
     </g>
     <g class="com.sun.star.drawing.PolyPolygonShape">
      <g id="id51">
       <path fill="rgb(0,0,0)" stroke="none" d="M 5,-1 L 5,4 0,4 5,-1 Z"/>
      </g>
     </g>
     <g class="com.sun.star.drawing.PolyPolygonShape">
      <g id="id52">
       <path fill="rgb(0,0,0)" stroke="none" d="M 0,-1 L 5,-1 5,4 0,4 0,-1 Z"/>
      </g>
     </g>
     <g class="com.sun.star.drawing.PolyPolygonShape">
      <g id="id53">
       <path fill="rgb(0,0,0)" stroke="none" d="M 0,4 L 0,-1 5,4 0,4 Z M 5,4 L 0,-1 0,4 5,4 Z"/>
      </g>
     </g>
     <g class="com.sun.star.drawing.PolyPolygonShape">
      <g id="id54">
       <path fill="rgb(0,0,0)" stroke="none" d="M 6,4 L 5,4 0,4 5,4 5,-1 6,4 Z"/>
      </g>
     </g>
     <g class="com.sun.star.drawing.PolyPolygonShape">
      <g id="id55">
       <path fill="rgb(0,0,0)" stroke="none" d="M 0,4 L 0,-1 0,4 5,-1 0,4 Z"/>
      </g>
     </g>
     <g class="com.sun.star.drawing.ClosedBezierShape">
      <g id="id56">
       <path fill="rgb(0,0,0)" stroke="none" d="M 5,4 C 0,4 0,4 0,4 0,-1 0,-1 0,-1 L 5,-1 5,4 Z"/>
      </g>
     </g>
     <g class="com.sun.star.drawing.PolyPolygonShape">
      <g id="id57">
       <path fill="rgb(0,0,0)" stroke="none" d="M 0,0 L 0,0 Z"/>
      </g>
     </g>
     <g class="com.sun.star.drawing.LineShape">
      <g id="id58">
       <path fill="none" stroke="rgb(0,0,0)" stroke-width="10" stroke-linejoin="round" d="M 67,964 L 74,955"/>
      </g>
     </g>
     <g class="com.sun.star.drawing.LineShape">
      <g id="id59">
       <path fill="none" stroke="rgb(0,0,0)" stroke-width="10" stroke-linejoin="round" d="M 90,931 L 120,890"/>
      </g>
     </g>
     <g class="com.sun.star.drawing.LineShape">
      <g id="id60">
       <path fill="none" stroke="rgb(0,0,0)" stroke-width="10" stroke-linejoin="round" d="M 136,866 L 143,857"/>
      </g>
     </g>
     <g class="com.sun.star.drawing.LineShape">
      <g id="id61">
       <path fill="none" stroke="rgb(0,0,0)" stroke-width="10" stroke-linejoin="round" d="M 159,833 L 189,792"/>
      </g>
     </g>
     <g class="com.sun.star.drawing.LineShape">
      <g id="id62">
       <path fill="none" stroke="rgb(0,0,0)" stroke-width="10" stroke-linejoin="round" d="M 206,768 L 212,759"/>
      </g>
     </g>
     <g class="com.sun.star.drawing.LineShape">
      <g id="id63">
       <path fill="none" stroke="rgb(0,0,0)" stroke-width="10" stroke-linejoin="round" d="M 229,735 L 259,694"/>
      </g>
     </g>
     <g class="com.sun.star.drawing.LineShape">
      <g id="id64">
       <path fill="none" stroke="rgb(0,0,0)" stroke-width="10" stroke-linejoin="round" d="M 275,670 L 282,661"/>
      </g>
     </g>
     <g class="com.sun.star.drawing.LineShape">
      <g id="id65">
       <path fill="none" stroke="rgb(0,0,0)" stroke-width="10" stroke-linejoin="round" d="M 298,637 L 328,596"/>
      </g>
     </g>
     <g class="com.sun.star.drawing.LineShape">
      <g id="id66">
       <path fill="none" stroke="rgb(0,0,0)" stroke-width="10" stroke-linejoin="round" d="M 344,572 L 351,563"/>
      </g>
     </g>
     <g class="com.sun.star.drawing.LineShape">
      <g id="id67">
       <path fill="none" stroke="rgb(0,0,0)" stroke-width="10" stroke-linejoin="round" d="M 367,539 L 397,498"/>
      </g>
     </g>
     <g class="com.sun.star.drawing.LineShape">
      <g id="id68">
       <path fill="none" stroke="rgb(0,0,0)" stroke-width="10" stroke-linejoin="round" d="M 413,474 L 420,465"/>
      </g>
     </g>
     <g class="com.sun.star.drawing.LineShape">
      <g id="id69">
       <path fill="none" stroke="rgb(0,0,0)" stroke-width="10" stroke-linejoin="round" d="M 436,441 L 466,400"/>
      </g>
     </g>
     <g class="com.sun.star.drawing.LineShape">
      <g id="id70">
       <path fill="none" stroke="rgb(0,0,0)" stroke-width="10" stroke-linejoin="round" d="M 483,376 L 489,367"/>
      </g>
     </g>
     <g class="com.sun.star.drawing.LineShape">
      <g id="id71">
       <path fill="none" stroke="rgb(0,0,0)" stroke-width="10" stroke-linejoin="round" d="M 506,343 L 536,302"/>
      </g>
     </g>
     <g class="com.sun.star.drawing.LineShape">
      <g id="id72">
       <path fill="none" stroke="rgb(0,0,0)" stroke-width="10" stroke-linejoin="round" d="M 552,278 L 559,269"/>
      </g>
     </g>
     <g class="com.sun.star.drawing.LineShape">
      <g id="id73">
       <path fill="none" stroke="rgb(0,0,0)" stroke-width="10" stroke-linejoin="round" d="M 575,245 L 599,212"/>
      </g>
     </g>
     <g class="com.sun.star.drawing.LineShape">
      <g id="id74">
       <path fill="none" stroke="rgb(0,0,0)" stroke-width="10" stroke-linejoin="round" d="M 1079,799 L 1070,791"/>
      </g>
     </g>
     <g class="com.sun.star.drawing.LineShape">
      <g id="id75">
       <path fill="none" stroke="rgb(0,0,0)" stroke-width="10" stroke-linejoin="round" d="M 1049,773 L 1010,739"/>
      </g>
     </g>
     <g class="com.sun.star.drawing.LineShape">
      <g id="id76">
       <path fill="none" stroke="rgb(0,0,0)" stroke-width="10" stroke-linejoin="round" d="M 988,721 L 980,713"/>
      </g>
     </g>
     <g class="com.sun.star.drawing.LineShape">
      <g id="id77">
       <path fill="none" stroke="rgb(0,0,0)" stroke-width="10" stroke-linejoin="round" d="M 958,695 L 919,661"/>
      </g>
     </g>
     <g class="com.sun.star.drawing.LineShape">
      <g id="id78">
       <path fill="none" stroke="rgb(0,0,0)" stroke-width="10" stroke-linejoin="round" d="M 897,642 L 889,635"/>
      </g>
     </g>
     <g class="com.sun.star.drawing.LineShape">
      <g id="id79">
       <path fill="none" stroke="rgb(0,0,0)" stroke-width="10" stroke-linejoin="round" d="M 867,616 L 828,583"/>
      </g>
     </g>
     <g class="com.sun.star.drawing.LineShape">
      <g id="id80">
       <path fill="none" stroke="rgb(0,0,0)" stroke-width="10" stroke-linejoin="round" d="M 806,564 L 798,556"/>
      </g>
     </g>
     <g class="com.sun.star.drawing.LineShape">
      <g id="id81">
       <path fill="none" stroke="rgb(0,0,0)" stroke-width="10" stroke-linejoin="round" d="M 776,538 L 737,504"/>
      </g>
     </g>
     <g class="com.sun.star.drawing.LineShape">
      <g id="id82">
       <path fill="none" stroke="rgb(0,0,0)" stroke-width="10" stroke-linejoin="round" d="M 715,486 L 707,478"/>
      </g>
     </g>
     <g class="com.sun.star.drawing.LineShape">
      <g id="id83">
       <path fill="none" stroke="rgb(0,0,0)" stroke-width="10" stroke-linejoin="round" d="M 685,460 L 646,426"/>
      </g>
     </g>
     <g class="com.sun.star.drawing.LineShape">
      <g id="id84">
       <path fill="none" stroke="rgb(0,0,0)" stroke-width="10" stroke-linejoin="round" d="M 624,407 L 616,400"/>
      </g>
     </g>
     <g class="com.sun.star.drawing.LineShape">
      <g id="id85">
       <path fill="none" stroke="rgb(0,0,0)" stroke-width="10" stroke-linejoin="round" d="M 594,381 L 555,348"/>
      </g>
     </g>
     <g class="com.sun.star.drawing.LineShape">
      <g id="id86">
       <path fill="none" stroke="rgb(0,0,0)" stroke-width="10" stroke-linejoin="round" d="M 534,329 L 525,321"/>
      </g>
     </g>
     <g class="com.sun.star.drawing.LineShape">
      <g id="id87">
       <path fill="none" stroke="rgb(0,0,0)" stroke-width="10" stroke-linejoin="round" d="M 503,303 L 464,269"/>
      </g>
     </g>
     <g class="com.sun.star.drawing.PolyPolygonShape">
      <g id="id88">
       <path fill="none" stroke="rgb(255,51,51)" stroke-width="20" stroke-linejoin="round" d="M 948,736 L 647,471 640,507 553,349 668,362 661,398 963,663 948,736 Z"/>
      </g>
     </g>
    </g>
   </g>
  </g>
 </g>
</svg>