<?xml version="1.0" encoding="UTF-8"?>

<svg version="1.2" baseProfile="tiny" width="11.29mm" height="11.29mm" viewBox="0 0 1129 1129" preserveAspectRatio="xMidYMid" fill-rule="evenodd" clip-path="url(#presentation_clip_path)" stroke-width="28.222" stroke-linejoin="round" xmlns="http://www.w3.org/2000/svg" xmlns:ooo="http://xml.openoffice.org/svg/export" xmlns:xlink="http://www.w3.org/1999/xlink" xml:space="preserve">
 <defs class="ClipPathGroup">
  <clipPath id="presentation_clip_path" clipPathUnits="userSpaceOnUse">
   <rect x="0" y="0" width="1129" height="1129"/>
  </clipPath>
 </defs>
 <defs class="TextShapeIndex">
  <g ooo:slide="id1" ooo:id-list="id3 id4 id5 id6 id7 id8 id9 id10 id11 id12 id13 id14 id15 id16 id17 id18 id19 id20 id21 id22 id23 id24 id25 id26 id27 id28 id29 id30 id31 id32 id33 id34 id35 id36 id37 id38 id39 id40 id41 id42 id43 id44 id45 id46 id47 id48 id49 id50 id51 id52 id53 id54 id55 id56 id57 id58 id59 id60 id61 id62 id63 id64 id65 id66 id67 id68 id69 id70 id71 id72 id73 id74 id75 id76 id77 id78 id79 id80 id81 id82 id83 id84 id85"/>
 </defs>
 <defs class="EmbeddedBulletChars">
  <g id="bullet-char-template(57356)" transform="scale(0.00048828125,-0.00048828125)">
   <path d="M 580,1141 L 1163,571 580,0 -4,571 580,1141 Z"/>
  </g>
  <g id="bullet-char-template(57354)" transform="scale(0.00048828125,-0.00048828125)">
   <path d="M 8,1128 L 1137,1128 1137,0 8,0 8,1128 Z"/>
  </g>
  <g id="bullet-char-template(10146)" transform="scale(0.00048828125,-0.00048828125)">
   <path d="M 174,0 L 602,739 174,1481 1456,739 174,0 Z M 1358,739 L 309,1346 659,739 1358,739 Z"/>
  </g>
  <g id="bullet-char-template(10132)" transform="scale(0.00048828125,-0.00048828125)">
   <path d="M 2015,739 L 1276,0 717,0 1260,543 174,543 174,936 1260,936 717,1481 1274,1481 2015,739 Z"/>
  </g>
  <g id="bullet-char-template(10007)" transform="scale(0.00048828125,-0.00048828125)">
   <path d="M 0,-2 C -7,14 -16,27 -25,37 L 356,567 C 262,823 215,952 215,954 215,979 228,992 255,992 264,992 276,990 289,987 310,991 331,999 354,1012 L 381,999 492,748 772,1049 836,1024 860,1049 C 881,1039 901,1025 922,1006 886,937 835,863 770,784 769,783 710,716 594,584 L 774,223 C 774,196 753,168 711,139 L 727,119 C 717,90 699,76 672,76 641,76 570,178 457,381 L 164,-76 C 142,-110 111,-127 72,-127 30,-127 9,-110 8,-76 1,-67 -2,-52 -2,-32 -2,-23 -1,-13 0,-2 Z"/>
  </g>
  <g id="bullet-char-template(10004)" transform="scale(0.00048828125,-0.00048828125)">
   <path d="M 285,-33 C 182,-33 111,30 74,156 52,228 41,333 41,471 41,549 55,616 82,672 116,743 169,778 240,778 293,778 328,747 346,684 L 369,508 C 377,444 397,411 428,410 L 1163,1116 C 1174,1127 1196,1133 1229,1133 1271,1133 1292,1118 1292,1087 L 1292,965 C 1292,929 1282,901 1262,881 L 442,47 C 390,-6 338,-33 285,-33 Z"/>
  </g>
  <g id="bullet-char-template(9679)" transform="scale(0.00048828125,-0.00048828125)">
   <path d="M 813,0 C 632,0 489,54 383,161 276,268 223,411 223,592 223,773 276,916 383,1023 489,1130 632,1184 813,1184 992,1184 1136,1130 1245,1023 1353,916 1407,772 1407,592 1407,412 1353,268 1245,161 1136,54 992,0 813,0 Z"/>
  </g>
  <g id="bullet-char-template(8226)" transform="scale(0.00048828125,-0.00048828125)">
   <path d="M 346,457 C 273,457 209,483 155,535 101,586 74,649 74,723 74,796 101,859 155,911 209,963 273,989 346,989 419,989 480,963 531,910 582,859 608,796 608,723 608,648 583,586 532,535 482,483 420,457 346,457 Z"/>
  </g>
  <g id="bullet-char-template(8211)" transform="scale(0.00048828125,-0.00048828125)">
   <path d="M -4,459 L 1135,459 1135,606 -4,606 -4,459 Z"/>
  </g>
 </defs>
 <defs class="TextEmbeddedBitmaps"/>
 <g>
  <g id="id2" class="Master_Slide">
   <g id="bg-id2" class="Background"/>
   <g id="bo-id2" class="BackgroundObjects"/>
  </g>
 </g>
 <g class="SlideGroup">
  <g>
   <g id="id1" class="Slide" clip-path="url(#presentation_clip_path)">
    <g class="Page">
     <g class="com.sun.star.drawing.CustomShape">
      <g id="id3">
       <path fill="rgb(114,159,207)" stroke="none" d="M 837,1064 L 687,1064 687,69 986,69 986,1064 837,1064 Z"/>
       <path fill="none" stroke="rgb(114,159,207)" d="M 837,1064 L 687,1064 687,69 986,69 986,1064 837,1064 Z"/>
      </g>
     </g>
     <g class="com.sun.star.drawing.PolyPolygonShape">
      <g id="id4">
       <path fill="rgb(0,0,0)" stroke="none" d="M 1,-1 L 1,0 1,0 0,0 1,-1 Z"/>
      </g>
     </g>
     <g class="com.sun.star.drawing.PolyPolygonShape">
      <g id="id5">
       <path fill="rgb(0,0,0)" stroke="none" d="M 0,-1 L 1,-1 1,0 0,0 0,-1 Z"/>
      </g>
     </g>
     <g class="com.sun.star.drawing.PolyPolygonShape">
      <g id="id6">
       <path fill="rgb(0,0,0)" stroke="none" d="M 0,0 L 0,0 0,-1 1,0 0,0 Z M 1,0 L 0,-1 0,0 1,0 Z"/>
      </g>
     </g>
     <g class="com.sun.star.drawing.PolyPolygonShape">
      <g id="id7">
       <path fill="rgb(0,0,0)" stroke="none" d="M 2,0 L 1,0 1,0 1,0 0,0 0,0 1,0 1,-1 1,-1 2,0 Z"/>
      </g>
     </g>
     <g class="com.sun.star.drawing.PolyPolygonShape">
      <g id="id8">
       <path fill="rgb(0,0,0)" stroke="none" d="M 0,0 L 0,-1 0,-1 0,-1 0,-1 0,-1 0,-1 0,-1 0,-1 0,-1 0,-1 0,-1 0,-1 0,-1 0,-1 0,-1 0,-1 0,-1 0,-1 0,-1 0,0 Z"/>
      </g>
     </g>
     <g class="com.sun.star.drawing.PolyPolygonShape">
      <g id="id9">
       <path fill="rgb(0,0,0)" stroke="none" d="M 0,0 L 0,0 0,0 0,-1 0,-1 0,-1 0,0 0,0 1,-1 1,-1 1,-1 1,-1 1,-1 0,0 Z"/>
      </g>
     </g>
     <g class="com.sun.star.drawing.ClosedBezierShape">
      <g id="id10">
       <path fill="rgb(0,0,0)" stroke="none" d="M 1,0 C 0,0 0,0 0,0 L 0,0 C 0,-1 0,-1 0,-1 L 1,-1 1,-1 1,0 Z"/>
      </g>
     </g>
     <g class="com.sun.star.drawing.PolyPolygonShape">
      <g id="id11">
       <path fill="rgb(0,0,0)" stroke="none" d="M 0,0 L 0,0 Z"/>
      </g>
     </g>
     <g class="com.sun.star.drawing.PolyPolygonShape">
      <g id="id12">
       <path fill="rgb(0,0,0)" stroke="none" d="M 0,0 L 1,0 1,0 0,0 Z"/>
      </g>
     </g>
     <g class="com.sun.star.drawing.PolyPolygonShape">
      <g id="id13">
       <path fill="rgb(0,0,0)" stroke="none" d="M 2,-1 L 2,1 0,1 2,-1 Z"/>
      </g>
     </g>
     <g class="com.sun.star.drawing.PolyPolygonShape">
      <g id="id14">
       <path fill="rgb(0,0,0)" stroke="none" d="M 0,-1 L 2,-1 2,1 0,1 0,-1 Z"/>
      </g>
     </g>
     <g class="com.sun.star.drawing.PolyPolygonShape">
      <g id="id15">
       <path fill="rgb(0,0,0)" stroke="none" d="M 0,1 L 0,-1 2,1 0,1 Z M 2,1 L 0,-1 0,1 2,1 Z"/>
      </g>
     </g>
     <g class="com.sun.star.drawing.PolyPolygonShape">
      <g id="id16">
       <path fill="rgb(0,0,0)" stroke="none" d="M 3,1 L 2,1 0,1 2,1 2,-1 3,1 Z"/>
      </g>
     </g>
     <g class="com.sun.star.drawing.PolyPolygonShape">
      <g id="id17"/>
     </g>
     <g class="com.sun.star.drawing.PolyPolygonShape">
      <g id="id18">
       <path fill="rgb(0,0,0)" stroke="none" d="M 0,1 L 0,-1 0,1 2,-1 0,1 Z"/>
      </g>
     </g>
     <g class="com.sun.star.drawing.ClosedBezierShape">
      <g id="id19">
       <path fill="rgb(0,0,0)" stroke="none" d="M 2,1 C 0,1 0,1 0,1 0,-1 0,-1 0,-1 L 2,-1 2,1 Z"/>
      </g>
     </g>
     <g class="com.sun.star.drawing.PolyPolygonShape">
      <g id="id20">
       <path fill="rgb(0,0,0)" stroke="none" d="M 0,0 L 0,0 Z"/>
      </g>
     </g>
     <g class="com.sun.star.drawing.PolyPolygonShape">
      <g id="id21"/>
     </g>
     <g class="com.sun.star.drawing.OpenBezierShape">
      <g id="id22">
       <path fill="none" stroke="rgb(114,159,207)" stroke-width="300" stroke-linejoin="round" d="M 251,991 C 251,331 837,772 837,112"/>
      </g>
     </g>
     <g class="com.sun.star.drawing.PolyPolygonShape">
      <g id="id23">
       <path fill="rgb(0,0,0)" stroke="none" d="M 3,-1 L 3,2 0,2 3,-1 Z"/>
      </g>
     </g>
     <g class="com.sun.star.drawing.PolyPolygonShape">
      <g id="id24">
       <path fill="rgb(0,0,0)" stroke="none" d="M 0,-1 L 3,-1 3,2 0,2 0,-1 Z"/>
      </g>
     </g>
     <g class="com.sun.star.drawing.PolyPolygonShape">
      <g id="id25">
       <path fill="rgb(0,0,0)" stroke="none" d="M 0,2 L 0,-1 3,2 0,2 Z M 3,2 L 0,-1 0,2 3,2 Z"/>
      </g>
     </g>
     <g class="com.sun.star.drawing.PolyPolygonShape">
      <g id="id26">
       <path fill="rgb(0,0,0)" stroke="none" d="M 4,2 L 3,2 0,2 3,2 3,-1 4,2 Z"/>
      </g>
     </g>
     <g class="com.sun.star.drawing.PolyPolygonShape">
      <g id="id27">
       <path fill="rgb(0,0,0)" stroke="none" d="M 0,2 L 0,-1 0,2 3,-1 0,2 Z"/>
      </g>
     </g>
     <g class="com.sun.star.drawing.ClosedBezierShape">
      <g id="id28">
       <path fill="rgb(0,0,0)" stroke="none" d="M 3,2 C 0,2 0,2 0,2 0,-1 0,-1 0,-1 L 3,-1 3,2 Z"/>
      </g>
     </g>
     <g class="com.sun.star.drawing.PolyPolygonShape">
      <g id="id29">
       <path fill="rgb(0,0,0)" stroke="none" d="M 0,0 L 0,0 Z"/>
      </g>
     </g>
     <g class="com.sun.star.drawing.PolyPolygonShape">
      <g id="id30">
       <path fill="rgb(0,0,0)" stroke="none" d="M 4,-1 L 4,3 0,3 4,-1 Z"/>
      </g>
     </g>
     <g class="com.sun.star.drawing.PolyPolygonShape">
      <g id="id31">
       <path fill="rgb(0,0,0)" stroke="none" d="M 0,-1 L 4,-1 4,3 0,3 0,-1 Z"/>
      </g>
     </g>
     <g class="com.sun.star.drawing.PolyPolygonShape">
      <g id="id32">
       <path fill="rgb(0,0,0)" stroke="none" d="M 0,3 L 0,-1 4,3 0,3 Z M 4,3 L 0,-1 0,3 4,3 Z"/>
      </g>
     </g>
     <g class="com.sun.star.drawing.PolyPolygonShape">
      <g id="id33">
       <path fill="rgb(0,0,0)" stroke="none" d="M 5,3 L 4,3 0,3 4,3 4,-1 5,3 Z"/>
      </g>
     </g>
     <g class="com.sun.star.drawing.PolyPolygonShape">
      <g id="id34">
       <path fill="rgb(0,0,0)" stroke="none" d="M 0,3 L 0,-1 0,3 4,-1 0,3 Z"/>
      </g>
     </g>
     <g class="com.sun.star.drawing.ClosedBezierShape">
      <g id="id35">
       <path fill="rgb(0,0,0)" stroke="none" d="M 4,3 C 0,3 0,3 0,3 0,-1 0,-1 0,-1 L 4,-1 4,3 Z"/>
      </g>
     </g>
     <g class="com.sun.star.drawing.PolyPolygonShape">
      <g id="id36">
       <path fill="rgb(0,0,0)" stroke="none" d="M 0,0 L 0,0 Z"/>
      </g>
     </g>
     <g class="com.sun.star.drawing.PolyPolygonShape">
      <g id="id37">
       <path fill="rgb(0,0,0)" stroke="none" d="M 5,-1 L 5,4 0,4 5,-1 Z"/>
      </g>
     </g>
     <g class="com.sun.star.drawing.PolyPolygonShape">
      <g id="id38">
       <path fill="rgb(0,0,0)" stroke="none" d="M 0,-1 L 5,-1 5,4 0,4 0,-1 Z"/>
      </g>
     </g>
     <g class="com.sun.star.drawing.PolyPolygonShape">
      <g id="id39">
       <path fill="rgb(0,0,0)" stroke="none" d="M 0,4 L 0,-1 5,4 0,4 Z M 5,4 L 0,-1 0,4 5,4 Z"/>
      </g>
     </g>
     <g class="com.sun.star.drawing.PolyPolygonShape">
      <g id="id40">
       <path fill="rgb(0,0,0)" stroke="none" d="M 6,4 L 5,4 0,4 5,4 5,-1 6,4 Z"/>
      </g>
     </g>
     <g class="com.sun.star.drawing.PolyPolygonShape">
      <g id="id41">
       <path fill="rgb(0,0,0)" stroke="none" d="M 0,4 L 0,-1 0,4 5,-1 0,4 Z"/>
      </g>
     </g>
     <g class="com.sun.star.drawing.ClosedBezierShape">
      <g id="id42">
       <path fill="rgb(0,0,0)" stroke="none" d="M 5,4 C 0,4 0,4 0,4 0,-1 0,-1 0,-1 L 5,-1 5,4 Z"/>
      </g>
     </g>
     <g class="com.sun.star.drawing.PolyPolygonShape">
      <g id="id43">
       <path fill="rgb(0,0,0)" stroke="none" d="M 0,0 L 0,0 Z"/>
      </g>
     </g>
     <g class="com.sun.star.drawing.PolyPolygonShape">
      <g id="id44">
       <path fill="rgb(0,0,0)" stroke="none" d="M 6,-1 L 6,5 0,5 6,-1 Z"/>
      </g>
     </g>
     <g class="com.sun.star.drawing.PolyPolygonShape">
      <g id="id45">
       <path fill="rgb(0,0,0)" stroke="none" d="M 0,-1 L 6,-1 6,5 0,5 0,-1 Z"/>
      </g>
     </g>
     <g class="com.sun.star.drawing.PolyPolygonShape">
      <g id="id46">
       <path fill="rgb(0,0,0)" stroke="none" d="M 0,5 L 0,-1 6,5 0,5 Z M 6,5 L 0,-1 0,5 6,5 Z"/>
      </g>
     </g>
     <g class="com.sun.star.drawing.PolyPolygonShape">
      <g id="id47">
       <path fill="rgb(0,0,0)" stroke="none" d="M 7,5 L 6,5 0,5 6,5 6,-1 7,5 Z"/>
      </g>
     </g>
     <g class="com.sun.star.drawing.PolyPolygonShape">
      <g id="id48">
       <path fill="rgb(0,0,0)" stroke="none" d="M 0,5 L 0,-1 0,5 6,-1 0,5 Z"/>
      </g>
     </g>
     <g class="com.sun.star.drawing.ClosedBezierShape">
      <g id="id49">
       <path fill="rgb(0,0,0)" stroke="none" d="M 6,5 C 0,5 0,5 0,5 0,-1 0,-1 0,-1 L 6,-1 6,5 Z"/>
      </g>
     </g>
     <g class="com.sun.star.drawing.PolyPolygonShape">
      <g id="id50">
       <path fill="rgb(0,0,0)" stroke="none" d="M 0,0 L 0,0 Z"/>
      </g>
     </g>
     <g class="com.sun.star.drawing.PolyPolygonShape">
      <g id="id51">
       <path fill="rgb(0,0,0)" stroke="none" d="M 7,-1 L 7,6 0,6 7,-1 Z"/>
      </g>
     </g>
     <g class="com.sun.star.drawing.PolyPolygonShape">
      <g id="id52">
       <path fill="rgb(0,0,0)" stroke="none" d="M 0,-1 L 7,-1 7,6 0,6 0,-1 Z"/>
      </g>
     </g>
     <g class="com.sun.star.drawing.PolyPolygonShape">
      <g id="id53">
       <path fill="rgb(0,0,0)" stroke="none" d="M 0,6 L 0,-1 7,6 0,6 Z M 7,6 L 0,-1 0,6 7,6 Z"/>
      </g>
     </g>
     <g class="com.sun.star.drawing.PolyPolygonShape">
      <g id="id54">
       <path fill="rgb(0,0,0)" stroke="none" d="M 8,6 L 7,6 0,6 7,6 7,-1 8,6 Z"/>
      </g>
     </g>
     <g class="com.sun.star.drawing.PolyPolygonShape">
      <g id="id55">
       <path fill="rgb(0,0,0)" stroke="none" d="M 0,6 L 0,-1 0,6 7,-1 0,6 Z"/>
      </g>
     </g>
     <g class="com.sun.star.drawing.ClosedBezierShape">
      <g id="id56">
       <path fill="rgb(0,0,0)" stroke="none" d="M 7,6 C 0,6 0,6 0,6 0,-1 0,-1 0,-1 L 7,-1 7,6 Z"/>
      </g>
     </g>
     <g class="com.sun.star.drawing.PolyPolygonShape">
      <g id="id57">
       <path fill="rgb(0,0,0)" stroke="none" d="M 0,0 L 0,0 Z"/>
      </g>
     </g>
     <g class="com.sun.star.drawing.PolyPolygonShape">
      <g id="id58">
       <path fill="rgb(0,0,0)" stroke="none" d="M 8,-1 L 8,7 0,7 8,-1 Z"/>
      </g>
     </g>
     <g class="com.sun.star.drawing.PolyPolygonShape">
      <g id="id59">
       <path fill="rgb(0,0,0)" stroke="none" d="M 0,-1 L 8,-1 8,7 0,7 0,-1 Z"/>
      </g>
     </g>
     <g class="com.sun.star.drawing.PolyPolygonShape">
      <g id="id60">
       <path fill="rgb(0,0,0)" stroke="none" d="M 0,7 L 0,-1 8,7 0,7 Z M 8,7 L 0,-1 0,7 8,7 Z"/>
      </g>
     </g>
     <g class="com.sun.star.drawing.PolyPolygonShape">
      <g id="id61">
       <path fill="rgb(0,0,0)" stroke="none" d="M 9,7 L 8,7 0,7 8,7 8,-1 9,7 Z"/>
      </g>
     </g>
     <g class="com.sun.star.drawing.PolyPolygonShape">
      <g id="id62">
       <path fill="rgb(0,0,0)" stroke="none" d="M 0,7 L 0,-1 0,7 8,-1 0,7 Z"/>
      </g>
     </g>
     <g class="com.sun.star.drawing.ClosedBezierShape">
      <g id="id63">
       <path fill="rgb(0,0,0)" stroke="none" d="M 8,7 C 0,7 0,7 0,7 0,-1 0,-1 0,-1 L 8,-1 8,7 Z"/>
      </g>
     </g>
     <g class="com.sun.star.drawing.PolyPolygonShape">
      <g id="id64">
       <path fill="rgb(0,0,0)" stroke="none" d="M 0,0 L 0,0 Z"/>
      </g>
     </g>
     <g class="com.sun.star.drawing.OpenBezierShape">
      <g id="id65">
       <path fill="none" stroke="rgb(0,0,0)" stroke-width="10" stroke-linejoin="round" d="M 251,990 C 251,986 251,982 251,978"/>
      </g>
     </g>
     <g class="com.sun.star.drawing.OpenBezierShape">
      <g id="id66">
       <path fill="none" stroke="rgb(0,0,0)" stroke-width="10" stroke-linejoin="round" d="M 252,947 C 253,929 256,909 258,893"/>
      </g>
     </g>
     <g class="com.sun.star.drawing.OpenBezierShape">
      <g id="id67">
       <path fill="none" stroke="rgb(0,0,0)" stroke-width="10" stroke-linejoin="round" d="M 260,867 C 260,864 263,859 263,856"/>
      </g>
     </g>
     <g class="com.sun.star.drawing.OpenBezierShape">
      <g id="id68">
       <path fill="none" stroke="rgb(0,0,0)" stroke-width="10" stroke-linejoin="round" d="M 266,832 C 270,813 277,794 282,778"/>
      </g>
     </g>
     <g class="com.sun.star.drawing.OpenBezierShape">
      <g id="id69">
       <path fill="none" stroke="rgb(0,0,0)" stroke-width="10" stroke-linejoin="round" d="M 291,752 C 292,749 295,744 297,741"/>
      </g>
     </g>
     <g class="com.sun.star.drawing.OpenBezierShape">
      <g id="id70">
       <path fill="none" stroke="rgb(0,0,0)" stroke-width="10" stroke-linejoin="round" d="M 307,719 C 316,703 328,688 338,675"/>
      </g>
     </g>
     <g class="com.sun.star.drawing.OpenBezierShape">
      <g id="id71">
       <path fill="none" stroke="rgb(0,0,0)" stroke-width="10" stroke-linejoin="round" d="M 356,655 C 359,653 363,649 365,647"/>
      </g>
     </g>
     <g class="com.sun.star.drawing.OpenBezierShape">
      <g id="id72">
       <path fill="none" stroke="rgb(0,0,0)" stroke-width="10" stroke-linejoin="round" d="M 386,630 C 399,620 416,609 430,601"/>
      </g>
     </g>
     <g class="com.sun.star.drawing.OpenBezierShape">
      <g id="id73">
       <path fill="none" stroke="rgb(0,0,0)" stroke-width="10" stroke-linejoin="round" d="M 455,589 C 458,588 463,587 466,583"/>
      </g>
     </g>
     <g class="com.sun.star.drawing.OpenBezierShape">
      <g id="id74">
       <path fill="none" stroke="rgb(0,0,0)" stroke-width="10" stroke-linejoin="round" d="M 491,573 C 507,567 524,559 540,553"/>
      </g>
     </g>
     <g class="com.sun.star.drawing.OpenBezierShape">
      <g id="id75">
       <path fill="none" stroke="rgb(0,0,0)" stroke-width="10" stroke-linejoin="round" d="M 566,545 C 569,544 575,540 578,539"/>
      </g>
     </g>
     <g class="com.sun.star.drawing.OpenBezierShape">
      <g id="id76">
       <path fill="none" stroke="rgb(0,0,0)" stroke-width="10" stroke-linejoin="round" d="M 603,530 C 619,523 636,515 651,507"/>
      </g>
     </g>
     <g class="com.sun.star.drawing.OpenBezierShape">
      <g id="id77">
       <path fill="none" stroke="rgb(0,0,0)" stroke-width="10" stroke-linejoin="round" d="M 675,494 C 678,492 682,489 685,487"/>
      </g>
     </g>
     <g class="com.sun.star.drawing.OpenBezierShape">
      <g id="id78">
       <path fill="none" stroke="rgb(0,0,0)" stroke-width="10" stroke-linejoin="round" d="M 708,471 C 720,461 734,448 745,436"/>
      </g>
     </g>
     <g class="com.sun.star.drawing.OpenBezierShape">
      <g id="id79">
       <path fill="none" stroke="rgb(0,0,0)" stroke-width="10" stroke-linejoin="round" d="M 762,414 C 764,411 768,406 770,403"/>
      </g>
     </g>
     <g class="com.sun.star.drawing.OpenBezierShape">
      <g id="id80">
       <path fill="none" stroke="rgb(0,0,0)" stroke-width="10" stroke-linejoin="round" d="M 783,381 C 790,367 799,351 804,335"/>
      </g>
     </g>
     <g class="com.sun.star.drawing.OpenBezierShape">
      <g id="id81">
       <path fill="none" stroke="rgb(0,0,0)" stroke-width="10" stroke-linejoin="round" d="M 812,307 C 813,303 816,298 817,294"/>
      </g>
     </g>
     <g class="com.sun.star.drawing.OpenBezierShape">
      <g id="id82">
       <path fill="none" stroke="rgb(0,0,0)" stroke-width="10" stroke-linejoin="round" d="M 822,267 C 825,253 829,236 831,220"/>
      </g>
     </g>
     <g class="com.sun.star.drawing.OpenBezierShape">
      <g id="id83">
       <path fill="none" stroke="rgb(0,0,0)" stroke-width="10" stroke-linejoin="round" d="M 832,192 C 832,189 835,183 835,180"/>
      </g>
     </g>
     <g class="com.sun.star.drawing.OpenBezierShape">
      <g id="id84">
       <path fill="none" stroke="rgb(0,0,0)" stroke-width="10" stroke-linejoin="round" d="M 834,150 C 837,139 837,125 837,113"/>
      </g>
     </g>
     <g class="com.sun.star.drawing.LineShape">
      <g id="id85">
       <path fill="none" stroke="rgb(0,0,0)" stroke-width="10" stroke-linejoin="round" d="M 839,29 L 839,39"/>
       <path fill="none" stroke="rgb(0,0,0)" stroke-width="10" stroke-linejoin="round" d="M 839,69 L 839,119"/>
       <path fill="none" stroke="rgb(0,0,0)" stroke-width="10" stroke-linejoin="round" d="M 839,149 L 839,159"/>
       <path fill="none" stroke="rgb(0,0,0)" stroke-width="10" stroke-linejoin="round" d="M 839,189 L 839,239"/>
       <path fill="none" stroke="rgb(0,0,0)" stroke-width="10" stroke-linejoin="round" d="M 839,269 L 839,279"/>
       <path fill="none" stroke="rgb(0,0,0)" stroke-width="10" stroke-linejoin="round" d="M 840,309 L 840,359"/>
       <path fill="none" stroke="rgb(0,0,0)" stroke-width="10" stroke-linejoin="round" d="M 840,389 L 840,399"/>
       <path fill="none" stroke="rgb(0,0,0)" stroke-width="10" stroke-linejoin="round" d="M 840,429 L 840,479"/>
       <path fill="none" stroke="rgb(0,0,0)" stroke-width="10" stroke-linejoin="round" d="M 840,509 L 840,519"/>
       <path fill="none" stroke="rgb(0,0,0)" stroke-width="10" stroke-linejoin="round" d="M 840,549 L 840,599"/>
       <path fill="none" stroke="rgb(0,0,0)" stroke-width="10" stroke-linejoin="round" d="M 840,629 L 840,639"/>
       <path fill="none" stroke="rgb(0,0,0)" stroke-width="10" stroke-linejoin="round" d="M 840,669 L 840,719"/>
       <path fill="none" stroke="rgb(0,0,0)" stroke-width="10" stroke-linejoin="round" d="M 840,749 L 840,759"/>
       <path fill="none" stroke="rgb(0,0,0)" stroke-width="10" stroke-linejoin="round" d="M 840,789 L 841,839"/>
       <path fill="none" stroke="rgb(0,0,0)" stroke-width="10" stroke-linejoin="round" d="M 841,869 L 841,879"/>
       <path fill="none" stroke="rgb(0,0,0)" stroke-width="10" stroke-linejoin="round" d="M 841,909 L 841,959"/>
       <path fill="none" stroke="rgb(0,0,0)" stroke-width="10" stroke-linejoin="round" d="M 841,989 L 841,999"/>
       <path fill="none" stroke="rgb(0,0,0)" stroke-width="10" stroke-linejoin="round" d="M 841,1029 L 841,1079"/>
      </g>
     </g>
    </g>
   </g>
  </g>
 </g>
</svg>