<?xml version="1.0" encoding="UTF-8"?>

<svg version="1.2" baseProfile="tiny" width="11.29mm" height="11.29mm" viewBox="0 0 1129 1129" preserveAspectRatio="xMidYMid" fill-rule="evenodd" clip-path="url(#presentation_clip_path)" stroke-width="28.222" stroke-linejoin="round" xmlns="http://www.w3.org/2000/svg" xmlns:ooo="http://xml.openoffice.org/svg/export" xmlns:xlink="http://www.w3.org/1999/xlink" xml:space="preserve">
 <defs class="ClipPathGroup">
  <clipPath id="presentation_clip_path" clipPathUnits="userSpaceOnUse">
   <rect x="0" y="0" width="1129" height="1129"/>
  </clipPath>
 </defs>
 <defs class="TextShapeIndex">
  <g ooo:slide="id1" ooo:id-list="id3 id4 id5 id6 id7 id8 id9 id10 id11 id12 id13 id14 id15 id16 id17 id18 id19 id20 id21 id22 id23 id24 id25 id26 id27 id28 id29 id30 id31 id32 id33 id34 id35 id36 id37 id38 id39 id40 id41 id42 id43 id44 id45 id46 id47 id48 id49 id50 id51 id52 id53 id54 id55 id56 id57 id58 id59 id60 id61 id62 id63 id64 id65"/>
 </defs>
 <defs class="EmbeddedBulletChars">
  <g id="bullet-char-template(57356)" transform="scale(0.00048828125,-0.00048828125)">
   <path d="M 580,1141 L 1163,571 580,0 -4,571 580,1141 Z"/>
  </g>
  <g id="bullet-char-template(57354)" transform="scale(0.00048828125,-0.00048828125)">
   <path d="M 8,1128 L 1137,1128 1137,0 8,0 8,1128 Z"/>
  </g>
  <g id="bullet-char-template(10146)" transform="scale(0.00048828125,-0.00048828125)">
   <path d="M 174,0 L 602,739 174,1481 1456,739 174,0 Z M 1358,739 L 309,1346 659,739 1358,739 Z"/>
  </g>
  <g id="bullet-char-template(10132)" transform="scale(0.00048828125,-0.00048828125)">
   <path d="M 2015,739 L 1276,0 717,0 1260,543 174,543 174,936 1260,936 717,1481 1274,1481 2015,739 Z"/>
  </g>
  <g id="bullet-char-template(10007)" transform="scale(0.00048828125,-0.00048828125)">
   <path d="M 0,-2 C -7,14 -16,27 -25,37 L 356,567 C 262,823 215,952 215,954 215,979 228,992 255,992 264,992 276,990 289,987 310,991 331,999 354,1012 L 381,999 492,748 772,1049 836,1024 860,1049 C 881,1039 901,1025 922,1006 886,937 835,863 770,784 769,783 710,716 594,584 L 774,223 C 774,196 753,168 711,139 L 727,119 C 717,90 699,76 672,76 641,76 570,178 457,381 L 164,-76 C 142,-110 111,-127 72,-127 30,-127 9,-110 8,-76 1,-67 -2,-52 -2,-32 -2,-23 -1,-13 0,-2 Z"/>
  </g>
  <g id="bullet-char-template(10004)" transform="scale(0.00048828125,-0.00048828125)">
   <path d="M 285,-33 C 182,-33 111,30 74,156 52,228 41,333 41,471 41,549 55,616 82,672 116,743 169,778 240,778 293,778 328,747 346,684 L 369,508 C 377,444 397,411 428,410 L 1163,1116 C 1174,1127 1196,1133 1229,1133 1271,1133 1292,1118 1292,1087 L 1292,965 C 1292,929 1282,901 1262,881 L 442,47 C 390,-6 338,-33 285,-33 Z"/>
  </g>
  <g id="bullet-char-template(9679)" transform="scale(0.00048828125,-0.00048828125)">
   <path d="M 813,0 C 632,0 489,54 383,161 276,268 223,411 223,592 223,773 276,916 383,1023 489,1130 632,1184 813,1184 992,1184 1136,1130 1245,1023 1353,916 1407,772 1407,592 1407,412 1353,268 1245,161 1136,54 992,0 813,0 Z"/>
  </g>
  <g id="bullet-char-template(8226)" transform="scale(0.00048828125,-0.00048828125)">
   <path d="M 346,457 C 273,457 209,483 155,535 101,586 74,649 74,723 74,796 101,859 155,911 209,963 273,989 346,989 419,989 480,963 531,910 582,859 608,796 608,723 608,648 583,586 532,535 482,483 420,457 346,457 Z"/>
  </g>
  <g id="bullet-char-template(8211)" transform="scale(0.00048828125,-0.00048828125)">
   <path d="M -4,459 L 1135,459 1135,606 -4,606 -4,459 Z"/>
  </g>
 </defs>
 <defs class="TextEmbeddedBitmaps"/>
 <g>
  <g id="id2" class="Master_Slide">
   <g id="bg-id2" class="Background"/>
   <g id="bo-id2" class="BackgroundObjects"/>
  </g>
 </g>
 <g class="SlideGroup">
  <g>
   <g id="id1" class="Slide" clip-path="url(#presentation_clip_path)">
    <g class="Page">
     <g class="com.sun.star.drawing.CustomShape">
      <g id="id3">
       <path fill="rgb(114,159,207)" stroke="none" d="M 483,767 C 485,851 513,920 545,919 L 902,913 C 934,912 960,843 958,759 956,676 928,606 896,607 L 539,613 C 507,614 481,684 483,767 L 483,767 Z M 486,920 L 486,920 Z M 956,606 L 956,606 Z"/>
       <path fill="none" stroke="rgb(52,101,164)" d="M 483,767 C 485,851 513,920 545,919 L 902,913 C 934,912 960,843 958,759 956,676 928,606 896,607 L 539,613 C 507,614 481,684 483,767 Z"/>
       <path fill="none" stroke="rgb(52,101,164)" d="M 486,920 L 486,920 Z"/>
       <path fill="none" stroke="rgb(52,101,164)" d="M 956,606 L 956,606 Z"/>
       <path fill="rgb(165,195,226)" stroke="none" d="M 483,767 C 485,851 513,920 545,919 577,919 603,849 601,765 599,682 571,613 539,613 507,614 481,684 483,767 L 483,767 Z M 486,920 L 486,920 Z M 956,606 L 956,606 Z"/>
       <path fill="none" stroke="rgb(52,101,164)" d="M 483,767 C 485,851 513,920 545,919 577,919 603,849 601,765 599,682 571,613 539,613 507,614 481,684 483,767 Z"/>
       <path fill="none" stroke="rgb(52,101,164)" d="M 486,920 L 486,920 Z"/>
       <path fill="none" stroke="rgb(52,101,164)" d="M 956,606 L 956,606 Z"/>
      </g>
     </g>
     <g class="com.sun.star.drawing.CustomShape">
      <g id="id4">
       <path fill="rgb(114,159,207)" stroke="none" d="M 259,555 L 256,575 255,595 255,613 256,632 257,652 261,671 265,688 270,706 275,723 283,740 290,757 299,772 308,787 318,803 330,817 341,829 354,842 368,853 382,865 397,873 413,883 429,891 446,898 462,904 481,910 498,914 517,917 535,919 554,921 573,922 593,921 612,919 631,916 634,663 628,664 622,665 615,666 609,665 603,664 596,664 591,662 585,661 579,660 573,658 568,656 563,652 557,650 552,646 548,643 544,639 539,635 535,631 531,626 528,622 526,616 522,611 520,606 517,600 516,594 514,589 512,582 511,576 511,570 511,564 511,558 512,551 512,545 259,555 Z M 597,1077 L 597,1077 Z M 675,-1 L 675,-1 Z"/>
       <path fill="none" stroke="rgb(52,101,164)" d="M 259,555 L 256,575 255,595 255,613 256,632 257,652 261,671 265,688 270,706 275,723 283,740 290,757 299,772 308,787 318,803 330,817 341,829 354,842 368,853 382,865 397,873 413,883 429,891 446,898 462,904 481,910 498,914 517,917 535,919 554,921 573,922 593,921 612,919 631,916 634,663 628,664 622,665 615,666 609,665 603,664 596,664 591,662 585,661 579,660 573,658 568,656 563,652 557,650 552,646 548,643 544,639 539,635 535,631 531,626 528,622 526,616 522,611 520,606 517,600 516,594 514,589 512,582 511,576 511,570 511,564 511,558 512,551 512,545 259,555 Z"/>
       <path fill="none" stroke="rgb(52,101,164)" d="M 597,1077 L 597,1077 Z"/>
       <path fill="none" stroke="rgb(52,101,164)" d="M 675,-1 L 675,-1 Z"/>
      </g>
     </g>
     <g class="com.sun.star.drawing.CustomShape">
      <g id="id5">
       <path fill="rgb(114,159,207)" stroke="none" d="M 409,221 C 325,221 256,248 256,280 L 256,637 C 256,669 325,696 409,696 492,696 562,669 562,637 L 562,280 C 562,248 492,221 409,221 L 409,221 Z M 256,221 L 256,221 Z M 562,697 L 562,697 Z"/>
       <path fill="none" stroke="rgb(52,101,164)" d="M 409,221 C 325,221 256,248 256,280 L 256,637 C 256,669 325,696 409,696 492,696 562,669 562,637 L 562,280 C 562,248 492,221 409,221 Z"/>
       <path fill="none" stroke="rgb(52,101,164)" d="M 256,221 L 256,221 Z"/>
       <path fill="none" stroke="rgb(52,101,164)" d="M 562,697 L 562,697 Z"/>
       <path fill="rgb(165,195,226)" stroke="none" d="M 409,221 C 325,221 256,248 256,280 256,312 325,339 409,339 492,339 562,312 562,280 562,248 492,221 409,221 L 409,221 Z M 256,221 L 256,221 Z M 562,697 L 562,697 Z"/>
       <path fill="none" stroke="rgb(52,101,164)" d="M 409,221 C 325,221 256,248 256,280 256,312 325,339 409,339 492,339 562,312 562,280 562,248 492,221 409,221 Z"/>
       <path fill="none" stroke="rgb(52,101,164)" d="M 256,221 L 256,221 Z"/>
       <path fill="none" stroke="rgb(52,101,164)" d="M 562,697 L 562,697 Z"/>
      </g>
     </g>
     <g class="com.sun.star.drawing.PolyPolygonShape">
      <g id="id6">
       <path fill="rgb(0,0,0)" stroke="none" d="M 1,-1 L 1,0 1,0 0,0 1,-1 Z"/>
      </g>
     </g>
     <g class="com.sun.star.drawing.PolyPolygonShape">
      <g id="id7">
       <path fill="rgb(0,0,0)" stroke="none" d="M 0,-1 L 1,-1 1,0 0,0 0,-1 Z"/>
      </g>
     </g>
     <g class="com.sun.star.drawing.PolyPolygonShape">
      <g id="id8">
       <path fill="rgb(0,0,0)" stroke="none" d="M 0,0 L 0,0 0,-1 1,0 0,0 Z M 1,0 L 0,-1 0,0 1,0 Z"/>
      </g>
     </g>
     <g class="com.sun.star.drawing.PolyPolygonShape">
      <g id="id9">
       <path fill="rgb(0,0,0)" stroke="none" d="M 2,0 L 1,0 1,0 1,0 0,0 0,0 1,0 1,-1 1,-1 2,0 Z"/>
      </g>
     </g>
     <g class="com.sun.star.drawing.PolyPolygonShape">
      <g id="id10">
       <path fill="rgb(0,0,0)" stroke="none" d="M 0,0 L 0,-1 0,-1 0,-1 0,-1 0,-1 0,-1 0,-1 0,-1 0,-1 0,-1 0,-1 0,-1 0,-1 0,-1 0,-1 0,-1 0,-1 0,-1 0,-1 0,0 Z"/>
      </g>
     </g>
     <g class="com.sun.star.drawing.PolyPolygonShape">
      <g id="id11">
       <path fill="rgb(0,0,0)" stroke="none" d="M 0,0 L 0,0 0,0 0,-1 0,-1 0,-1 0,0 0,0 1,-1 1,-1 1,-1 1,-1 1,-1 0,0 Z"/>
      </g>
     </g>
     <g class="com.sun.star.drawing.ClosedBezierShape">
      <g id="id12">
       <path fill="rgb(0,0,0)" stroke="none" d="M 1,0 C 0,0 0,0 0,0 L 0,0 C 0,-1 0,-1 0,-1 L 1,-1 1,-1 1,0 Z"/>
      </g>
     </g>
     <g class="com.sun.star.drawing.PolyPolygonShape">
      <g id="id13">
       <path fill="rgb(0,0,0)" stroke="none" d="M 0,0 L 0,0 Z"/>
      </g>
     </g>
     <g class="com.sun.star.drawing.PolyPolygonShape">
      <g id="id14">
       <path fill="rgb(0,0,0)" stroke="none" d="M 0,0 L 1,0 1,0 0,0 Z"/>
      </g>
     </g>
     <g class="com.sun.star.drawing.PolyPolygonShape">
      <g id="id15">
       <path fill="rgb(0,0,0)" stroke="none" d="M 2,-1 L 2,1 0,1 2,-1 Z"/>
      </g>
     </g>
     <g class="com.sun.star.drawing.PolyPolygonShape">
      <g id="id16">
       <path fill="rgb(0,0,0)" stroke="none" d="M 0,-1 L 2,-1 2,1 0,1 0,-1 Z"/>
      </g>
     </g>
     <g class="com.sun.star.drawing.PolyPolygonShape">
      <g id="id17">
       <path fill="rgb(0,0,0)" stroke="none" d="M 0,1 L 0,-1 2,1 0,1 Z M 2,1 L 0,-1 0,1 2,1 Z"/>
      </g>
     </g>
     <g class="com.sun.star.drawing.PolyPolygonShape">
      <g id="id18">
       <path fill="rgb(0,0,0)" stroke="none" d="M 3,1 L 2,1 0,1 2,1 2,-1 3,1 Z"/>
      </g>
     </g>
     <g class="com.sun.star.drawing.PolyPolygonShape">
      <g id="id19"/>
     </g>
     <g class="com.sun.star.drawing.PolyPolygonShape">
      <g id="id20">
       <path fill="rgb(0,0,0)" stroke="none" d="M 0,1 L 0,-1 0,1 2,-1 0,1 Z"/>
      </g>
     </g>
     <g class="com.sun.star.drawing.ClosedBezierShape">
      <g id="id21">
       <path fill="rgb(0,0,0)" stroke="none" d="M 2,1 C 0,1 0,1 0,1 0,-1 0,-1 0,-1 L 2,-1 2,1 Z"/>
      </g>
     </g>
     <g class="com.sun.star.drawing.PolyPolygonShape">
      <g id="id22">
       <path fill="rgb(0,0,0)" stroke="none" d="M 0,0 L 0,0 Z"/>
      </g>
     </g>
     <g class="com.sun.star.drawing.PolyPolygonShape">
      <g id="id23"/>
     </g>
     <g class="com.sun.star.drawing.PolyPolygonShape">
      <g id="id24">
       <path fill="rgb(0,0,0)" stroke="none" d="M 3,-1 L 3,2 0,2 3,-1 Z"/>
      </g>
     </g>
     <g class="com.sun.star.drawing.PolyPolygonShape">
      <g id="id25">
       <path fill="rgb(0,0,0)" stroke="none" d="M 0,-1 L 3,-1 3,2 0,2 0,-1 Z"/>
      </g>
     </g>
     <g class="com.sun.star.drawing.PolyPolygonShape">
      <g id="id26">
       <path fill="rgb(0,0,0)" stroke="none" d="M 0,2 L 0,-1 3,2 0,2 Z M 3,2 L 0,-1 0,2 3,2 Z"/>
      </g>
     </g>
     <g class="com.sun.star.drawing.PolyPolygonShape">
      <g id="id27">
       <path fill="rgb(0,0,0)" stroke="none" d="M 4,2 L 3,2 0,2 3,2 3,-1 4,2 Z"/>
      </g>
     </g>
     <g class="com.sun.star.drawing.PolyPolygonShape">
      <g id="id28">
       <path fill="rgb(0,0,0)" stroke="none" d="M 0,2 L 0,-1 0,2 3,-1 0,2 Z"/>
      </g>
     </g>
     <g class="com.sun.star.drawing.ClosedBezierShape">
      <g id="id29">
       <path fill="rgb(0,0,0)" stroke="none" d="M 3,2 C 0,2 0,2 0,2 0,-1 0,-1 0,-1 L 3,-1 3,2 Z"/>
      </g>
     </g>
     <g class="com.sun.star.drawing.PolyPolygonShape">
      <g id="id30">
       <path fill="rgb(0,0,0)" stroke="none" d="M 0,0 L 0,0 Z"/>
      </g>
     </g>
     <g class="com.sun.star.drawing.PolyPolygonShape">
      <g id="id31">
       <path fill="rgb(0,0,0)" stroke="none" d="M 4,-1 L 4,3 0,3 4,-1 Z"/>
      </g>
     </g>
     <g class="com.sun.star.drawing.PolyPolygonShape">
      <g id="id32">
       <path fill="rgb(0,0,0)" stroke="none" d="M 0,-1 L 4,-1 4,3 0,3 0,-1 Z"/>
      </g>
     </g>
     <g class="com.sun.star.drawing.PolyPolygonShape">
      <g id="id33">
       <path fill="rgb(0,0,0)" stroke="none" d="M 0,3 L 0,-1 4,3 0,3 Z M 4,3 L 0,-1 0,3 4,3 Z"/>
      </g>
     </g>
     <g class="com.sun.star.drawing.PolyPolygonShape">
      <g id="id34">
       <path fill="rgb(0,0,0)" stroke="none" d="M 5,3 L 4,3 0,3 4,3 4,-1 5,3 Z"/>
      </g>
     </g>
     <g class="com.sun.star.drawing.PolyPolygonShape">
      <g id="id35">
       <path fill="rgb(0,0,0)" stroke="none" d="M 0,3 L 0,-1 0,3 4,-1 0,3 Z"/>
      </g>
     </g>
     <g class="com.sun.star.drawing.ClosedBezierShape">
      <g id="id36">
       <path fill="rgb(0,0,0)" stroke="none" d="M 4,3 C 0,3 0,3 0,3 0,-1 0,-1 0,-1 L 4,-1 4,3 Z"/>
      </g>
     </g>
     <g class="com.sun.star.drawing.PolyPolygonShape">
      <g id="id37">
       <path fill="rgb(0,0,0)" stroke="none" d="M 0,0 L 0,0 Z"/>
      </g>
     </g>
     <g class="com.sun.star.drawing.LineShape">
      <g id="id38">
       <path fill="none" stroke="rgb(0,0,0)" stroke-width="10" stroke-linejoin="round" d="M 411,230 L 411,240"/>
      </g>
     </g>
     <g class="com.sun.star.drawing.LineShape">
      <g id="id39">
       <path fill="none" stroke="rgb(0,0,0)" stroke-width="10" stroke-linejoin="round" d="M 411,270 L 413,321"/>
      </g>
     </g>
     <g class="com.sun.star.drawing.LineShape">
      <g id="id40">
       <path fill="none" stroke="rgb(0,0,0)" stroke-width="10" stroke-linejoin="round" d="M 412,350 L 412,360"/>
      </g>
     </g>
     <g class="com.sun.star.drawing.LineShape">
      <g id="id41">
       <path fill="none" stroke="rgb(0,0,0)" stroke-width="10" stroke-linejoin="round" d="M 412,390 L 414,441"/>
      </g>
     </g>
     <g class="com.sun.star.drawing.LineShape">
      <g id="id42">
       <path fill="none" stroke="rgb(0,0,0)" stroke-width="10" stroke-linejoin="round" d="M 413,470 L 413,480"/>
      </g>
     </g>
     <g class="com.sun.star.drawing.LineShape">
      <g id="id43">
       <path fill="none" stroke="rgb(0,0,0)" stroke-width="10" stroke-linejoin="round" d="M 413,510 L 415,561"/>
      </g>
     </g>
     <g class="com.sun.star.drawing.LineShape">
      <g id="id44">
       <path fill="none" stroke="rgb(0,0,0)" stroke-width="10" stroke-linejoin="round" d="M 414,590 L 414,600"/>
      </g>
     </g>
     <g class="com.sun.star.drawing.LineShape">
      <g id="id45">
       <path fill="none" stroke="rgb(0,0,0)" stroke-width="10" stroke-linejoin="round" d="M 414,630 L 416,681"/>
      </g>
     </g>
     <g class="com.sun.star.drawing.LineShape">
      <g id="id46">
       <path fill="none" stroke="rgb(0,0,0)" stroke-width="10" stroke-linejoin="round" d="M 415,710 L 415,720"/>
      </g>
     </g>
     <g class="com.sun.star.drawing.LineShape">
      <g id="id47">
       <path fill="none" stroke="rgb(0,0,0)" stroke-width="10" stroke-linejoin="round" d="M 415,750 L 417,801"/>
      </g>
     </g>
     <g class="com.sun.star.drawing.LineShape">
      <g id="id48">
       <path fill="none" stroke="rgb(0,0,0)" stroke-width="10" stroke-linejoin="round" d="M 416,830 L 416,840"/>
      </g>
     </g>
     <g class="com.sun.star.drawing.LineShape">
      <g id="id49">
       <path fill="none" stroke="rgb(0,0,0)" stroke-width="10" stroke-linejoin="round" d="M 416,870 L 418,921"/>
      </g>
     </g>
     <g class="com.sun.star.drawing.LineShape">
      <g id="id50">
       <path fill="none" stroke="rgb(0,0,0)" stroke-width="10" stroke-linejoin="round" d="M 417,950 L 417,960"/>
      </g>
     </g>
     <g class="com.sun.star.drawing.LineShape">
      <g id="id51">
       <path fill="none" stroke="rgb(0,0,0)" stroke-width="10" stroke-linejoin="round" d="M 217,767 L 227,767"/>
      </g>
     </g>
     <g class="com.sun.star.drawing.LineShape">
      <g id="id52">
       <path fill="none" stroke="rgb(0,0,0)" stroke-width="10" stroke-linejoin="round" d="M 257,767 L 308,769"/>
      </g>
     </g>
     <g class="com.sun.star.drawing.LineShape">
      <g id="id53">
       <path fill="none" stroke="rgb(0,0,0)" stroke-width="10" stroke-linejoin="round" d="M 337,768 L 347,768"/>
      </g>
     </g>
     <g class="com.sun.star.drawing.LineShape">
      <g id="id54">
       <path fill="none" stroke="rgb(0,0,0)" stroke-width="10" stroke-linejoin="round" d="M 377,768 L 428,770"/>
      </g>
     </g>
     <g class="com.sun.star.drawing.LineShape">
      <g id="id55">
       <path fill="none" stroke="rgb(0,0,0)" stroke-width="10" stroke-linejoin="round" d="M 457,769 L 467,769"/>
      </g>
     </g>
     <g class="com.sun.star.drawing.LineShape">
      <g id="id56">
       <path fill="none" stroke="rgb(0,0,0)" stroke-width="10" stroke-linejoin="round" d="M 497,769 L 548,771"/>
      </g>
     </g>
     <g class="com.sun.star.drawing.LineShape">
      <g id="id57">
       <path fill="none" stroke="rgb(0,0,0)" stroke-width="10" stroke-linejoin="round" d="M 577,770 L 587,770"/>
      </g>
     </g>
     <g class="com.sun.star.drawing.LineShape">
      <g id="id58">
       <path fill="none" stroke="rgb(0,0,0)" stroke-width="10" stroke-linejoin="round" d="M 617,770 L 668,772"/>
      </g>
     </g>
     <g class="com.sun.star.drawing.LineShape">
      <g id="id59">
       <path fill="none" stroke="rgb(0,0,0)" stroke-width="10" stroke-linejoin="round" d="M 697,771 L 707,771"/>
      </g>
     </g>
     <g class="com.sun.star.drawing.LineShape">
      <g id="id60">
       <path fill="none" stroke="rgb(0,0,0)" stroke-width="10" stroke-linejoin="round" d="M 737,771 L 788,773"/>
      </g>
     </g>
     <g class="com.sun.star.drawing.LineShape">
      <g id="id61">
       <path fill="none" stroke="rgb(0,0,0)" stroke-width="10" stroke-linejoin="round" d="M 817,772 L 827,772"/>
      </g>
     </g>
     <g class="com.sun.star.drawing.LineShape">
      <g id="id62">
       <path fill="none" stroke="rgb(0,0,0)" stroke-width="10" stroke-linejoin="round" d="M 857,772 L 908,774"/>
      </g>
     </g>
     <g class="com.sun.star.drawing.LineShape">
      <g id="id63">
       <path fill="none" stroke="rgb(0,0,0)" stroke-width="10" stroke-linejoin="round" d="M 937,773 L 947,773"/>
      </g>
     </g>
     <g class="com.sun.star.drawing.LineShape">
      <g id="id64">
       <path fill="none" stroke="rgb(0,0,0)" stroke-width="10" stroke-linejoin="round" d="M 270,993 L 276,985"/>
       <path fill="none" stroke="rgb(0,0,0)" stroke-width="10" stroke-linejoin="round" d="M 292,960 L 320,918"/>
       <path fill="none" stroke="rgb(0,0,0)" stroke-width="10" stroke-linejoin="round" d="M 337,893 L 342,885"/>
       <path fill="none" stroke="rgb(0,0,0)" stroke-width="10" stroke-linejoin="round" d="M 359,860 L 387,818"/>
       <path fill="none" stroke="rgb(0,0,0)" stroke-width="10" stroke-linejoin="round" d="M 403,793 L 409,785"/>
       <path fill="none" stroke="rgb(0,0,0)" stroke-width="10" stroke-linejoin="round" d="M 425,760 L 453,719"/>
       <path fill="none" stroke="rgb(0,0,0)" stroke-width="10" stroke-linejoin="round" d="M 470,694 L 475,685"/>
       <path fill="none" stroke="rgb(0,0,0)" stroke-width="10" stroke-linejoin="round" d="M 492,660 L 520,619"/>
       <path fill="none" stroke="rgb(0,0,0)" stroke-width="10" stroke-linejoin="round" d="M 536,594 L 542,585"/>
       <path fill="none" stroke="rgb(0,0,0)" stroke-width="10" stroke-linejoin="round" d="M 559,560 L 586,519"/>
       <path fill="none" stroke="rgb(0,0,0)" stroke-width="10" stroke-linejoin="round" d="M 603,494 L 609,486"/>
       <path fill="none" stroke="rgb(0,0,0)" stroke-width="10" stroke-linejoin="round" d="M 625,461 L 653,419"/>
       <path fill="none" stroke="rgb(0,0,0)" stroke-width="10" stroke-linejoin="round" d="M 670,394 L 675,386"/>
       <path fill="none" stroke="rgb(0,0,0)" stroke-width="10" stroke-linejoin="round" d="M 692,361 L 720,319"/>
       <path fill="none" stroke="rgb(0,0,0)" stroke-width="10" stroke-linejoin="round" d="M 736,294 L 742,286"/>
       <path fill="none" stroke="rgb(0,0,0)" stroke-width="10" stroke-linejoin="round" d="M 759,261 L 786,219"/>
       <path fill="none" stroke="rgb(0,0,0)" stroke-width="10" stroke-linejoin="round" d="M 803,195 L 809,186"/>
      </g>
     </g>
     <g class="com.sun.star.drawing.CustomShape">
      <g id="id65">
       <path fill="none" stroke="rgb(255,51,51)" stroke-width="20" stroke-linejoin="round" d="M 809,355 L 811,352 814,347 815,343 816,338 818,335 820,330 820,326 821,322 822,317 823,313 823,309 823,304 822,300 823,296 821,292 821,288 820,284 819,280 818,276 816,273 815,268 813,265 811,261 808,259 807,255 804,253 801,250 799,247 795,245 792,242 789,240 786,239 783,237 779,236 775,235 772,234 768,233 764,232 760,232 756,232 752,232 748,232 744,233 741,234 737,235 732,236 728,237 724,238 721,240 717,243 714,244 710,247 706,249 702,252 700,255 696,259 693,262 690,265 687,268 684,271 682,276 680,279 677,283 675,287 674,292 672,295 670,299 669,304 668,308 594,299 596,290 598,282 602,274 605,265 609,258 612,250 617,242 621,234 627,227 632,220 637,213 643,206 649,200 656,195 663,188 669,183 675,179 683,174 690,170 698,166 706,162 713,159 721,156 729,154 737,153 744,151 752,150 761,149 768,149 775,150 783,150 790,151 799,153 806,155 812,157 820,160 826,163 833,167 839,170 846,175 851,180 857,185 862,191 867,196 872,202 877,208 881,215 885,222 887,229 891,237 894,245 895,252 897,260 899,268 900,276 901,284 901,292 901,302 900,309 900,318 898,327 897,335 894,344 892,352 889,361 885,369 882,376 879,385 874,393 906,411 798,449 778,337 809,355 Z"/>
      </g>
     </g>
    </g>
   </g>
  </g>
 </g>
</svg>