<?xml version="1.0" encoding="UTF-8"?>
<!DOCTYPE svg PUBLIC "-//W3C//DTD SVG 1.1//EN" "http://www.w3.org/Graphics/SVG/1.1/DTD/svg11.dtd">
<svg version="1.2" width="11.29mm" height="11.29mm" viewBox="0 0 1129 1129" preserveAspectRatio="xMidYMid" fill-rule="evenodd" stroke-width="28.222" stroke-linejoin="round" xmlns="http://www.w3.org/2000/svg" xmlns:ooo="http://xml.openoffice.org/svg/export" xmlns:xlink="http://www.w3.org/1999/xlink" xmlns:presentation="http://sun.com/xmlns/staroffice/presentation" xmlns:smil="http://www.w3.org/2001/SMIL20/" xmlns:anim="urn:oasis:names:tc:opendocument:xmlns:animation:1.0" xml:space="preserve">
 <defs class="ClipPathGroup">
  <clipPath id="presentation_clip_path" clipPathUnits="userSpaceOnUse">
   <rect x="0" y="0" width="1129" height="1129"/>
  </clipPath>
 </defs>
 <defs class="TextShapeIndex">
  <g ooo:slide="id1" ooo:id-list="id3 id4 id5 id6 id7 id8 id9 id10 id11 id12 id13 id14 id15 id16 id17 id18 id19 id20 id21 id22 id23 id24 id25 id26 id27 id28 id29 id30 id31 id32 id33 id34 id35 id36 id37 id38 id39 id40 id41 id42 id43 id44 id45 id46 id47 id48 id49 id50 id51 id52 id53 id54 id55 id56 id57 id58 id59 id60 id61 id62 id63 id64 id65 id66 id67 id68 id69 id70 id71 id72 id73 id74 id75 id76 id77 id78 id79 id80 id81 id82 id83 id84 id85 id86 id87 id88 id89 id90 id91 id92 id93 id94 id95 id96 id97 id98 id99 id100 id101 id102 id103 id104 id105 id106 id107 id108 id109 id110 id111 id112 id113 id114 id115 id116 id117 id118 id119 id120 id121 id122 id123 id124 id125 id126 id127 id128 id129 id130 id131 id132 id133 id134 id135 id136 id137 id138 id139 id140 id141 id142 id143 id144 id145 id146 id147 id148 id149 id150 id151 id152 id153 id154 id155"/>
 </defs>
 <defs class="EmbeddedBulletChars">
  <g id="bullet-char-template(57356)" transform="scale(0.00048828125,-0.00048828125)">
   <path d="M 580,1141 L 1163,571 580,0 -4,571 580,1141 Z"/>
  </g>
  <g id="bullet-char-template(57354)" transform="scale(0.00048828125,-0.00048828125)">
   <path d="M 8,1128 L 1137,1128 1137,0 8,0 8,1128 Z"/>
  </g>
  <g id="bullet-char-template(10146)" transform="scale(0.00048828125,-0.00048828125)">
   <path d="M 174,0 L 602,739 174,1481 1456,739 174,0 Z M 1358,739 L 309,1346 659,739 1358,739 Z"/>
  </g>
  <g id="bullet-char-template(10132)" transform="scale(0.00048828125,-0.00048828125)">
   <path d="M 2015,739 L 1276,0 717,0 1260,543 174,543 174,936 1260,936 717,1481 1274,1481 2015,739 Z"/>
  </g>
  <g id="bullet-char-template(10007)" transform="scale(0.00048828125,-0.00048828125)">
   <path d="M 0,-2 C -7,14 -16,27 -25,37 L 356,567 C 262,823 215,952 215,954 215,979 228,992 255,992 264,992 276,990 289,987 310,991 331,999 354,1012 L 381,999 492,748 772,1049 836,1024 860,1049 C 881,1039 901,1025 922,1006 886,937 835,863 770,784 769,783 710,716 594,584 L 774,223 C 774,196 753,168 711,139 L 727,119 C 717,90 699,76 672,76 641,76 570,178 457,381 L 164,-76 C 142,-110 111,-127 72,-127 30,-127 9,-110 8,-76 1,-67 -2,-52 -2,-32 -2,-23 -1,-13 0,-2 Z"/>
  </g>
  <g id="bullet-char-template(10004)" transform="scale(0.00048828125,-0.00048828125)">
   <path d="M 285,-33 C 182,-33 111,30 74,156 52,228 41,333 41,471 41,549 55,616 82,672 116,743 169,778 240,778 293,778 328,747 346,684 L 369,508 C 377,444 397,411 428,410 L 1163,1116 C 1174,1127 1196,1133 1229,1133 1271,1133 1292,1118 1292,1087 L 1292,965 C 1292,929 1282,901 1262,881 L 442,47 C 390,-6 338,-33 285,-33 Z"/>
  </g>
  <g id="bullet-char-template(9679)" transform="scale(0.00048828125,-0.00048828125)">
   <path d="M 813,0 C 632,0 489,54 383,161 276,268 223,411 223,592 223,773 276,916 383,1023 489,1130 632,1184 813,1184 992,1184 1136,1130 1245,1023 1353,916 1407,772 1407,592 1407,412 1353,268 1245,161 1136,54 992,0 813,0 Z"/>
  </g>
  <g id="bullet-char-template(8226)" transform="scale(0.00048828125,-0.00048828125)">
   <path d="M 346,457 C 273,457 209,483 155,535 101,586 74,649 74,723 74,796 101,859 155,911 209,963 273,989 346,989 419,989 480,963 531,910 582,859 608,796 608,723 608,648 583,586 532,535 482,483 420,457 346,457 Z"/>
  </g>
  <g id="bullet-char-template(8211)" transform="scale(0.00048828125,-0.00048828125)">
   <path d="M -4,459 L 1135,459 1135,606 -4,606 -4,459 Z"/>
  </g>
 </defs>
 <defs class="TextEmbeddedBitmaps"/>
 <g>
  <g id="id2" class="Master_Slide">
   <g id="bg-id2" class="Background"/>
   <g id="bo-id2" class="BackgroundObjects"/>
  </g>
 </g>
 <g class="SlideGroup">
  <g>
   <g id="id1" class="Slide" clip-path="url(#presentation_clip_path)">
    <g class="Page">
     <g class="com.sun.star.drawing.PolyPolygonShape">
      <g id="id3">
       <rect class="BoundingBox" stroke="none" fill="none" x="0" y="-1" width="13" height="13"/>
      </g>
     </g>
     <g class="com.sun.star.drawing.PolyPolygonShape">
      <g id="id4">
       <rect class="BoundingBox" stroke="none" fill="none" x="0" y="-1" width="12" height="12"/>
      </g>
     </g>
     <g class="com.sun.star.drawing.PolyPolygonShape">
      <g id="id5">
       <rect class="BoundingBox" stroke="none" fill="none" x="0" y="-1" width="11" height="11"/>
      </g>
     </g>
     <g class="com.sun.star.drawing.PolyPolygonShape">
      <g id="id6">
       <rect class="BoundingBox" stroke="none" fill="none" x="0" y="-1" width="10" height="10"/>
      </g>
     </g>
     <g class="com.sun.star.drawing.PolyPolygonShape">
      <g id="id7">
       <rect class="BoundingBox" stroke="none" fill="none" x="0" y="-1" width="9" height="9"/>
      </g>
     </g>
     <g class="com.sun.star.drawing.PolyPolygonShape">
      <g id="id8">
       <rect class="BoundingBox" stroke="none" fill="none" x="0" y="-1" width="8" height="8"/>
       <path fill="rgb(0,0,0)" stroke="none" d="M 7,-1 L 7,6 0,6 7,-1 Z"/>
      </g>
     </g>
     <g class="com.sun.star.drawing.PolyPolygonShape">
      <g id="id9">
       <rect class="BoundingBox" stroke="none" fill="none" x="0" y="-1" width="13" height="13"/>
      </g>
     </g>
     <g class="com.sun.star.drawing.PolyPolygonShape">
      <g id="id10">
       <rect class="BoundingBox" stroke="none" fill="none" x="0" y="-1" width="12" height="12"/>
      </g>
     </g>
     <g class="com.sun.star.drawing.PolyPolygonShape">
      <g id="id11">
       <rect class="BoundingBox" stroke="none" fill="none" x="0" y="-1" width="11" height="11"/>
      </g>
     </g>
     <g class="com.sun.star.drawing.PolyPolygonShape">
      <g id="id12">
       <rect class="BoundingBox" stroke="none" fill="none" x="0" y="-1" width="10" height="10"/>
      </g>
     </g>
     <g class="com.sun.star.drawing.PolyPolygonShape">
      <g id="id13">
       <rect class="BoundingBox" stroke="none" fill="none" x="0" y="-1" width="9" height="9"/>
      </g>
     </g>
     <g class="com.sun.star.drawing.PolyPolygonShape">
      <g id="id14">
       <rect class="BoundingBox" stroke="none" fill="none" x="0" y="-1" width="8" height="8"/>
       <path fill="rgb(0,0,0)" stroke="none" d="M 0,-1 L 7,-1 7,6 0,6 0,-1 Z"/>
      </g>
     </g>
     <g class="com.sun.star.drawing.PolyPolygonShape">
      <g id="id15">
       <rect class="BoundingBox" stroke="none" fill="none" x="0" y="-1" width="13" height="13"/>
      </g>
     </g>
     <g class="com.sun.star.drawing.PolyPolygonShape">
      <g id="id16">
       <rect class="BoundingBox" stroke="none" fill="none" x="0" y="-1" width="12" height="12"/>
      </g>
     </g>
     <g class="com.sun.star.drawing.PolyPolygonShape">
      <g id="id17">
       <rect class="BoundingBox" stroke="none" fill="none" x="0" y="-1" width="11" height="11"/>
      </g>
     </g>
     <g class="com.sun.star.drawing.PolyPolygonShape">
      <g id="id18">
       <rect class="BoundingBox" stroke="none" fill="none" x="0" y="-1" width="10" height="10"/>
      </g>
     </g>
     <g class="com.sun.star.drawing.PolyPolygonShape">
      <g id="id19">
       <rect class="BoundingBox" stroke="none" fill="none" x="0" y="-1" width="9" height="9"/>
      </g>
     </g>
     <g class="com.sun.star.drawing.PolyPolygonShape">
      <g id="id20">
       <rect class="BoundingBox" stroke="none" fill="none" x="0" y="-1" width="8" height="8"/>
       <path fill="rgb(0,0,0)" stroke="none" d="M 0,6 L 0,-1 7,6 0,6 Z M 7,6 L 0,-1 0,6 7,6 Z"/>
      </g>
     </g>
     <g class="com.sun.star.drawing.PolyPolygonShape">
      <g id="id21">
       <rect class="BoundingBox" stroke="none" fill="none" x="0" y="-1" width="14" height="13"/>
      </g>
     </g>
     <g class="com.sun.star.drawing.PolyPolygonShape">
      <g id="id22">
       <rect class="BoundingBox" stroke="none" fill="none" x="0" y="-1" width="13" height="12"/>
      </g>
     </g>
     <g class="com.sun.star.drawing.PolyPolygonShape">
      <g id="id23">
       <rect class="BoundingBox" stroke="none" fill="none" x="0" y="-1" width="12" height="11"/>
      </g>
     </g>
     <g class="com.sun.star.drawing.PolyPolygonShape">
      <g id="id24">
       <rect class="BoundingBox" stroke="none" fill="none" x="0" y="-1" width="11" height="10"/>
      </g>
     </g>
     <g class="com.sun.star.drawing.PolyPolygonShape">
      <g id="id25">
       <rect class="BoundingBox" stroke="none" fill="none" x="0" y="-1" width="10" height="9"/>
      </g>
     </g>
     <g class="com.sun.star.drawing.PolyPolygonShape">
      <g id="id26">
       <rect class="BoundingBox" stroke="none" fill="none" x="0" y="-1" width="9" height="8"/>
       <path fill="rgb(0,0,0)" stroke="none" d="M 8,6 L 7,6 0,6 7,6 7,-1 8,6 Z"/>
      </g>
     </g>
     <g class="com.sun.star.drawing.PolyPolygonShape">
      <g id="id27">
       <rect class="BoundingBox" stroke="none" fill="none" x="0" y="-1" width="11" height="12"/>
      </g>
     </g>
     <g class="com.sun.star.drawing.PolyPolygonShape">
      <g id="id28">
       <rect class="BoundingBox" stroke="none" fill="none" x="0" y="-1" width="13" height="13"/>
      </g>
     </g>
     <g class="com.sun.star.drawing.PolyPolygonShape">
      <g id="id29">
       <rect class="BoundingBox" stroke="none" fill="none" x="0" y="-1" width="12" height="12"/>
      </g>
     </g>
     <g class="com.sun.star.drawing.PolyPolygonShape">
      <g id="id30">
       <rect class="BoundingBox" stroke="none" fill="none" x="0" y="-1" width="11" height="11"/>
      </g>
     </g>
     <g class="com.sun.star.drawing.PolyPolygonShape">
      <g id="id31">
       <rect class="BoundingBox" stroke="none" fill="none" x="0" y="-1" width="10" height="10"/>
      </g>
     </g>
     <g class="com.sun.star.drawing.PolyPolygonShape">
      <g id="id32">
       <rect class="BoundingBox" stroke="none" fill="none" x="0" y="-1" width="9" height="9"/>
      </g>
     </g>
     <g class="com.sun.star.drawing.PolyPolygonShape">
      <g id="id33">
       <rect class="BoundingBox" stroke="none" fill="none" x="0" y="-1" width="8" height="8"/>
       <path fill="rgb(0,0,0)" stroke="none" d="M 0,6 L 0,-1 0,6 7,-1 0,6 Z"/>
      </g>
     </g>
     <g class="com.sun.star.drawing.PolyPolygonShape">
      <g id="id34">
       <rect class="BoundingBox" stroke="none" fill="none" x="0" y="-1" width="13" height="13"/>
      </g>
     </g>
     <g class="com.sun.star.drawing.PolyPolygonShape">
      <g id="id35">
       <rect class="BoundingBox" stroke="none" fill="none" x="0" y="-1" width="12" height="12"/>
      </g>
     </g>
     <g class="com.sun.star.drawing.PolyPolygonShape">
      <g id="id36">
       <rect class="BoundingBox" stroke="none" fill="none" x="0" y="-1" width="11" height="11"/>
      </g>
     </g>
     <g class="com.sun.star.drawing.PolyPolygonShape">
      <g id="id37">
       <rect class="BoundingBox" stroke="none" fill="none" x="0" y="-1" width="10" height="10"/>
      </g>
     </g>
     <g class="com.sun.star.drawing.PolyPolygonShape">
      <g id="id38">
       <rect class="BoundingBox" stroke="none" fill="none" x="0" y="-1" width="9" height="9"/>
      </g>
     </g>
     <g class="com.sun.star.drawing.ClosedBezierShape">
      <g id="id39">
       <rect class="BoundingBox" stroke="none" fill="none" x="0" y="-1" width="8" height="8"/>
       <path fill="rgb(0,0,0)" stroke="none" d="M 7,6 C 0,6 0,6 0,6 0,-1 0,-1 0,-1 L 7,-1 7,6 Z"/>
      </g>
     </g>
     <g class="com.sun.star.drawing.PolyPolygonShape">
      <g id="id40">
       <rect class="BoundingBox" stroke="none" fill="none" x="0" y="0" width="11" height="11"/>
      </g>
     </g>
     <g class="com.sun.star.drawing.PolyPolygonShape">
      <g id="id41">
       <rect class="BoundingBox" stroke="none" fill="none" x="0" y="0" width="9" height="9"/>
      </g>
     </g>
     <g class="com.sun.star.drawing.PolyPolygonShape">
      <g id="id42">
       <rect class="BoundingBox" stroke="none" fill="none" x="0" y="0" width="7" height="7"/>
      </g>
     </g>
     <g class="com.sun.star.drawing.PolyPolygonShape">
      <g id="id43">
       <rect class="BoundingBox" stroke="none" fill="none" x="0" y="0" width="5" height="5"/>
      </g>
     </g>
     <g class="com.sun.star.drawing.PolyPolygonShape">
      <g id="id44">
       <rect class="BoundingBox" stroke="none" fill="none" x="0" y="0" width="3" height="3"/>
      </g>
     </g>
     <g class="com.sun.star.drawing.PolyPolygonShape">
      <g id="id45">
       <rect class="BoundingBox" stroke="none" fill="none" x="0" y="0" width="1" height="1"/>
       <path fill="rgb(0,0,0)" stroke="none" d="M 0,0 L 0,0 Z"/>
      </g>
     </g>
     <g class="com.sun.star.drawing.PolyPolygonShape">
      <g id="id46">
       <rect class="BoundingBox" stroke="none" fill="none" x="0" y="0" width="12" height="11"/>
      </g>
     </g>
     <g class="com.sun.star.drawing.PolyPolygonShape">
      <g id="id47">
       <rect class="BoundingBox" stroke="none" fill="none" x="0" y="-1" width="14" height="14"/>
      </g>
     </g>
     <g class="com.sun.star.drawing.PolyPolygonShape">
      <g id="id48">
       <rect class="BoundingBox" stroke="none" fill="none" x="0" y="-1" width="13" height="13"/>
      </g>
     </g>
     <g class="com.sun.star.drawing.PolyPolygonShape">
      <g id="id49">
       <rect class="BoundingBox" stroke="none" fill="none" x="0" y="-1" width="12" height="12"/>
      </g>
     </g>
     <g class="com.sun.star.drawing.PolyPolygonShape">
      <g id="id50">
       <rect class="BoundingBox" stroke="none" fill="none" x="0" y="-1" width="11" height="11"/>
      </g>
     </g>
     <g class="com.sun.star.drawing.PolyPolygonShape">
      <g id="id51">
       <rect class="BoundingBox" stroke="none" fill="none" x="0" y="-1" width="10" height="10"/>
      </g>
     </g>
     <g class="com.sun.star.drawing.PolyPolygonShape">
      <g id="id52">
       <rect class="BoundingBox" stroke="none" fill="none" x="0" y="-1" width="9" height="9"/>
       <path fill="rgb(0,0,0)" stroke="none" d="M 8,-1 L 8,7 0,7 8,-1 Z"/>
      </g>
     </g>
     <g class="com.sun.star.drawing.PolyPolygonShape">
      <g id="id53">
       <rect class="BoundingBox" stroke="none" fill="none" x="0" y="-1" width="14" height="14"/>
      </g>
     </g>
     <g class="com.sun.star.drawing.PolyPolygonShape">
      <g id="id54">
       <rect class="BoundingBox" stroke="none" fill="none" x="0" y="-1" width="13" height="13"/>
      </g>
     </g>
     <g class="com.sun.star.drawing.PolyPolygonShape">
      <g id="id55">
       <rect class="BoundingBox" stroke="none" fill="none" x="0" y="-1" width="12" height="12"/>
      </g>
     </g>
     <g class="com.sun.star.drawing.PolyPolygonShape">
      <g id="id56">
       <rect class="BoundingBox" stroke="none" fill="none" x="0" y="-1" width="11" height="11"/>
      </g>
     </g>
     <g class="com.sun.star.drawing.PolyPolygonShape">
      <g id="id57">
       <rect class="BoundingBox" stroke="none" fill="none" x="0" y="-1" width="10" height="10"/>
      </g>
     </g>
     <g class="com.sun.star.drawing.PolyPolygonShape">
      <g id="id58">
       <rect class="BoundingBox" stroke="none" fill="none" x="0" y="-1" width="9" height="9"/>
       <path fill="rgb(0,0,0)" stroke="none" d="M 0,-1 L 8,-1 8,7 0,7 0,-1 Z"/>
      </g>
     </g>
     <g class="com.sun.star.drawing.PolyPolygonShape">
      <g id="id59">
       <rect class="BoundingBox" stroke="none" fill="none" x="0" y="-1" width="14" height="14"/>
      </g>
     </g>
     <g class="com.sun.star.drawing.PolyPolygonShape">
      <g id="id60">
       <rect class="BoundingBox" stroke="none" fill="none" x="0" y="-1" width="13" height="13"/>
      </g>
     </g>
     <g class="com.sun.star.drawing.PolyPolygonShape">
      <g id="id61">
       <rect class="BoundingBox" stroke="none" fill="none" x="0" y="-1" width="12" height="12"/>
      </g>
     </g>
     <g class="com.sun.star.drawing.PolyPolygonShape">
      <g id="id62">
       <rect class="BoundingBox" stroke="none" fill="none" x="0" y="-1" width="11" height="11"/>
      </g>
     </g>
     <g class="com.sun.star.drawing.PolyPolygonShape">
      <g id="id63">
       <rect class="BoundingBox" stroke="none" fill="none" x="0" y="-1" width="10" height="10"/>
      </g>
     </g>
     <g class="com.sun.star.drawing.PolyPolygonShape">
      <g id="id64">
       <rect class="BoundingBox" stroke="none" fill="none" x="0" y="-1" width="9" height="9"/>
       <path fill="rgb(0,0,0)" stroke="none" d="M 0,7 L 0,-1 8,7 0,7 Z M 8,7 L 0,-1 0,7 8,7 Z"/>
      </g>
     </g>
     <g class="com.sun.star.drawing.PolyPolygonShape">
      <g id="id65">
       <rect class="BoundingBox" stroke="none" fill="none" x="0" y="-1" width="15" height="14"/>
      </g>
     </g>
     <g class="com.sun.star.drawing.PolyPolygonShape">
      <g id="id66">
       <rect class="BoundingBox" stroke="none" fill="none" x="0" y="-1" width="14" height="13"/>
      </g>
     </g>
     <g class="com.sun.star.drawing.PolyPolygonShape">
      <g id="id67">
       <rect class="BoundingBox" stroke="none" fill="none" x="0" y="-1" width="13" height="12"/>
      </g>
     </g>
     <g class="com.sun.star.drawing.PolyPolygonShape">
      <g id="id68">
       <rect class="BoundingBox" stroke="none" fill="none" x="0" y="-1" width="12" height="11"/>
      </g>
     </g>
     <g class="com.sun.star.drawing.PolyPolygonShape">
      <g id="id69">
       <rect class="BoundingBox" stroke="none" fill="none" x="0" y="-1" width="11" height="10"/>
      </g>
     </g>
     <g class="com.sun.star.drawing.PolyPolygonShape">
      <g id="id70">
       <rect class="BoundingBox" stroke="none" fill="none" x="0" y="-1" width="10" height="9"/>
       <path fill="rgb(0,0,0)" stroke="none" d="M 9,7 L 8,7 0,7 8,7 8,-1 9,7 Z"/>
      </g>
     </g>
     <g class="com.sun.star.drawing.PolyPolygonShape">
      <g id="id71">
       <rect class="BoundingBox" stroke="none" fill="none" x="0" y="-1" width="14" height="14"/>
      </g>
     </g>
     <g class="com.sun.star.drawing.PolyPolygonShape">
      <g id="id72">
       <rect class="BoundingBox" stroke="none" fill="none" x="0" y="-1" width="13" height="13"/>
      </g>
     </g>
     <g class="com.sun.star.drawing.PolyPolygonShape">
      <g id="id73">
       <rect class="BoundingBox" stroke="none" fill="none" x="0" y="-1" width="12" height="12"/>
      </g>
     </g>
     <g class="com.sun.star.drawing.PolyPolygonShape">
      <g id="id74">
       <rect class="BoundingBox" stroke="none" fill="none" x="0" y="-1" width="11" height="11"/>
      </g>
     </g>
     <g class="com.sun.star.drawing.PolyPolygonShape">
      <g id="id75">
       <rect class="BoundingBox" stroke="none" fill="none" x="0" y="-1" width="10" height="10"/>
      </g>
     </g>
     <g class="com.sun.star.drawing.PolyPolygonShape">
      <g id="id76">
       <rect class="BoundingBox" stroke="none" fill="none" x="0" y="-1" width="9" height="9"/>
       <path fill="rgb(0,0,0)" stroke="none" d="M 0,7 L 0,-1 0,7 8,-1 0,7 Z"/>
      </g>
     </g>
     <g class="com.sun.star.drawing.PolyPolygonShape">
      <g id="id77">
       <rect class="BoundingBox" stroke="none" fill="none" x="0" y="-1" width="14" height="14"/>
      </g>
     </g>
     <g class="com.sun.star.drawing.PolyPolygonShape">
      <g id="id78">
       <rect class="BoundingBox" stroke="none" fill="none" x="0" y="-1" width="13" height="13"/>
      </g>
     </g>
     <g class="com.sun.star.drawing.PolyPolygonShape">
      <g id="id79">
       <rect class="BoundingBox" stroke="none" fill="none" x="0" y="-1" width="12" height="12"/>
      </g>
     </g>
     <g class="com.sun.star.drawing.PolyPolygonShape">
      <g id="id80">
       <rect class="BoundingBox" stroke="none" fill="none" x="0" y="-1" width="11" height="11"/>
      </g>
     </g>
     <g class="com.sun.star.drawing.PolyPolygonShape">
      <g id="id81">
       <rect class="BoundingBox" stroke="none" fill="none" x="0" y="-1" width="10" height="10"/>
      </g>
     </g>
     <g class="com.sun.star.drawing.ClosedBezierShape">
      <g id="id82">
       <rect class="BoundingBox" stroke="none" fill="none" x="0" y="-1" width="9" height="9"/>
       <path fill="rgb(0,0,0)" stroke="none" d="M 8,7 C 0,7 0,7 0,7 0,-1 0,-1 0,-1 L 8,-1 8,7 Z"/>
      </g>
     </g>
     <g class="com.sun.star.drawing.PolyPolygonShape">
      <g id="id83">
       <rect class="BoundingBox" stroke="none" fill="none" x="0" y="0" width="11" height="11"/>
      </g>
     </g>
     <g class="com.sun.star.drawing.PolyPolygonShape">
      <g id="id84">
       <rect class="BoundingBox" stroke="none" fill="none" x="0" y="0" width="9" height="9"/>
      </g>
     </g>
     <g class="com.sun.star.drawing.PolyPolygonShape">
      <g id="id85">
       <rect class="BoundingBox" stroke="none" fill="none" x="0" y="0" width="7" height="7"/>
      </g>
     </g>
     <g class="com.sun.star.drawing.PolyPolygonShape">
      <g id="id86">
       <rect class="BoundingBox" stroke="none" fill="none" x="0" y="0" width="5" height="5"/>
      </g>
     </g>
     <g class="com.sun.star.drawing.PolyPolygonShape">
      <g id="id87">
       <rect class="BoundingBox" stroke="none" fill="none" x="0" y="0" width="3" height="3"/>
      </g>
     </g>
     <g class="com.sun.star.drawing.PolyPolygonShape">
      <g id="id88">
       <rect class="BoundingBox" stroke="none" fill="none" x="0" y="0" width="1" height="1"/>
       <path fill="rgb(0,0,0)" stroke="none" d="M 0,0 L 0,0 Z"/>
      </g>
     </g>
     <g class="com.sun.star.drawing.PolyPolygonShape">
      <g id="id89">
       <rect class="BoundingBox" stroke="none" fill="none" x="0" y="-1" width="15" height="15"/>
      </g>
     </g>
     <g class="com.sun.star.drawing.PolyPolygonShape">
      <g id="id90">
       <rect class="BoundingBox" stroke="none" fill="none" x="0" y="-1" width="14" height="14"/>
      </g>
     </g>
     <g class="com.sun.star.drawing.PolyPolygonShape">
      <g id="id91">
       <rect class="BoundingBox" stroke="none" fill="none" x="0" y="-1" width="13" height="13"/>
      </g>
     </g>
     <g class="com.sun.star.drawing.PolyPolygonShape">
      <g id="id92">
       <rect class="BoundingBox" stroke="none" fill="none" x="0" y="-1" width="12" height="12"/>
      </g>
     </g>
     <g class="com.sun.star.drawing.PolyPolygonShape">
      <g id="id93">
       <rect class="BoundingBox" stroke="none" fill="none" x="0" y="-1" width="11" height="11"/>
      </g>
     </g>
     <g class="com.sun.star.drawing.PolyPolygonShape">
      <g id="id94">
       <rect class="BoundingBox" stroke="none" fill="none" x="0" y="-1" width="10" height="10"/>
       <path fill="rgb(0,0,0)" stroke="none" d="M 9,-1 L 9,8 0,8 9,-1 Z"/>
      </g>
     </g>
     <g class="com.sun.star.drawing.PolyPolygonShape">
      <g id="id95">
       <rect class="BoundingBox" stroke="none" fill="none" x="0" y="-1" width="15" height="15"/>
      </g>
     </g>
     <g class="com.sun.star.drawing.PolyPolygonShape">
      <g id="id96">
       <rect class="BoundingBox" stroke="none" fill="none" x="0" y="-1" width="14" height="14"/>
      </g>
     </g>
     <g class="com.sun.star.drawing.PolyPolygonShape">
      <g id="id97">
       <rect class="BoundingBox" stroke="none" fill="none" x="0" y="-1" width="13" height="13"/>
      </g>
     </g>
     <g class="com.sun.star.drawing.PolyPolygonShape">
      <g id="id98">
       <rect class="BoundingBox" stroke="none" fill="none" x="0" y="-1" width="12" height="12"/>
      </g>
     </g>
     <g class="com.sun.star.drawing.PolyPolygonShape">
      <g id="id99">
       <rect class="BoundingBox" stroke="none" fill="none" x="0" y="-1" width="11" height="11"/>
      </g>
     </g>
     <g class="com.sun.star.drawing.PolyPolygonShape">
      <g id="id100">
       <rect class="BoundingBox" stroke="none" fill="none" x="0" y="-1" width="10" height="10"/>
       <path fill="rgb(0,0,0)" stroke="none" d="M 0,-1 L 9,-1 9,8 0,8 0,-1 Z"/>
      </g>
     </g>
     <g class="com.sun.star.drawing.PolyPolygonShape">
      <g id="id101">
       <rect class="BoundingBox" stroke="none" fill="none" x="0" y="-1" width="15" height="15"/>
      </g>
     </g>
     <g class="com.sun.star.drawing.PolyPolygonShape">
      <g id="id102">
       <rect class="BoundingBox" stroke="none" fill="none" x="0" y="-1" width="14" height="14"/>
      </g>
     </g>
     <g class="com.sun.star.drawing.PolyPolygonShape">
      <g id="id103">
       <rect class="BoundingBox" stroke="none" fill="none" x="0" y="-1" width="13" height="13"/>
      </g>
     </g>
     <g class="com.sun.star.drawing.PolyPolygonShape">
      <g id="id104">
       <rect class="BoundingBox" stroke="none" fill="none" x="0" y="-1" width="12" height="12"/>
      </g>
     </g>
     <g class="com.sun.star.drawing.PolyPolygonShape">
      <g id="id105">
       <rect class="BoundingBox" stroke="none" fill="none" x="0" y="-1" width="11" height="11"/>
      </g>
     </g>
     <g class="com.sun.star.drawing.PolyPolygonShape">
      <g id="id106">
       <rect class="BoundingBox" stroke="none" fill="none" x="0" y="-1" width="10" height="10"/>
       <path fill="rgb(0,0,0)" stroke="none" d="M 0,8 L 0,-1 9,8 0,8 Z M 9,8 L 0,-1 0,8 9,8 Z"/>
      </g>
     </g>
     <g class="com.sun.star.drawing.PolyPolygonShape">
      <g id="id107">
       <rect class="BoundingBox" stroke="none" fill="none" x="0" y="-1" width="16" height="15"/>
      </g>
     </g>
     <g class="com.sun.star.drawing.PolyPolygonShape">
      <g id="id108">
       <rect class="BoundingBox" stroke="none" fill="none" x="0" y="-1" width="15" height="14"/>
      </g>
     </g>
     <g class="com.sun.star.drawing.PolyPolygonShape">
      <g id="id109">
       <rect class="BoundingBox" stroke="none" fill="none" x="0" y="-1" width="14" height="13"/>
      </g>
     </g>
     <g class="com.sun.star.drawing.PolyPolygonShape">
      <g id="id110">
       <rect class="BoundingBox" stroke="none" fill="none" x="0" y="-1" width="13" height="12"/>
      </g>
     </g>
     <g class="com.sun.star.drawing.PolyPolygonShape">
      <g id="id111">
       <rect class="BoundingBox" stroke="none" fill="none" x="0" y="-1" width="12" height="11"/>
      </g>
     </g>
     <g class="com.sun.star.drawing.PolyPolygonShape">
      <g id="id112">
       <rect class="BoundingBox" stroke="none" fill="none" x="0" y="-1" width="11" height="10"/>
       <path fill="rgb(0,0,0)" stroke="none" d="M 10,8 L 9,8 0,8 9,8 9,-1 10,8 Z"/>
      </g>
     </g>
     <g class="com.sun.star.drawing.PolyPolygonShape">
      <g id="id113">
       <rect class="BoundingBox" stroke="none" fill="none" x="0" y="-1" width="15" height="15"/>
      </g>
     </g>
     <g class="com.sun.star.drawing.PolyPolygonShape">
      <g id="id114">
       <rect class="BoundingBox" stroke="none" fill="none" x="0" y="-1" width="14" height="14"/>
      </g>
     </g>
     <g class="com.sun.star.drawing.PolyPolygonShape">
      <g id="id115">
       <rect class="BoundingBox" stroke="none" fill="none" x="0" y="-1" width="13" height="13"/>
      </g>
     </g>
     <g class="com.sun.star.drawing.PolyPolygonShape">
      <g id="id116">
       <rect class="BoundingBox" stroke="none" fill="none" x="0" y="-1" width="12" height="12"/>
      </g>
     </g>
     <g class="com.sun.star.drawing.PolyPolygonShape">
      <g id="id117">
       <rect class="BoundingBox" stroke="none" fill="none" x="0" y="-1" width="11" height="11"/>
      </g>
     </g>
     <g class="com.sun.star.drawing.PolyPolygonShape">
      <g id="id118">
       <rect class="BoundingBox" stroke="none" fill="none" x="0" y="-1" width="10" height="10"/>
       <path fill="rgb(0,0,0)" stroke="none" d="M 0,8 L 0,-1 0,8 9,-1 0,8 Z"/>
      </g>
     </g>
     <g class="com.sun.star.drawing.PolyPolygonShape">
      <g id="id119">
       <rect class="BoundingBox" stroke="none" fill="none" x="0" y="-1" width="15" height="15"/>
      </g>
     </g>
     <g class="com.sun.star.drawing.PolyPolygonShape">
      <g id="id120">
       <rect class="BoundingBox" stroke="none" fill="none" x="0" y="-1" width="14" height="14"/>
      </g>
     </g>
     <g class="com.sun.star.drawing.PolyPolygonShape">
      <g id="id121">
       <rect class="BoundingBox" stroke="none" fill="none" x="0" y="-1" width="13" height="13"/>
      </g>
     </g>
     <g class="com.sun.star.drawing.PolyPolygonShape">
      <g id="id122">
       <rect class="BoundingBox" stroke="none" fill="none" x="0" y="-1" width="12" height="12"/>
      </g>
     </g>
     <g class="com.sun.star.drawing.PolyPolygonShape">
      <g id="id123">
       <rect class="BoundingBox" stroke="none" fill="none" x="0" y="-1" width="11" height="11"/>
      </g>
     </g>
     <g class="com.sun.star.drawing.ClosedBezierShape">
      <g id="id124">
       <rect class="BoundingBox" stroke="none" fill="none" x="0" y="-1" width="10" height="10"/>
       <path fill="rgb(0,0,0)" stroke="none" d="M 9,8 C 0,8 0,8 0,8 0,-1 0,-1 0,-1 L 9,-1 9,8 Z"/>
      </g>
     </g>
     <g class="com.sun.star.drawing.PolyPolygonShape">
      <g id="id125">
       <rect class="BoundingBox" stroke="none" fill="none" x="0" y="0" width="11" height="11"/>
      </g>
     </g>
     <g class="com.sun.star.drawing.PolyPolygonShape">
      <g id="id126">
       <rect class="BoundingBox" stroke="none" fill="none" x="0" y="0" width="9" height="9"/>
      </g>
     </g>
     <g class="com.sun.star.drawing.PolyPolygonShape">
      <g id="id127">
       <rect class="BoundingBox" stroke="none" fill="none" x="0" y="0" width="7" height="7"/>
      </g>
     </g>
     <g class="com.sun.star.drawing.PolyPolygonShape">
      <g id="id128">
       <rect class="BoundingBox" stroke="none" fill="none" x="0" y="0" width="5" height="5"/>
      </g>
     </g>
     <g class="com.sun.star.drawing.PolyPolygonShape">
      <g id="id129">
       <rect class="BoundingBox" stroke="none" fill="none" x="0" y="0" width="3" height="3"/>
      </g>
     </g>
     <g class="com.sun.star.drawing.PolyPolygonShape">
      <g id="id130">
       <rect class="BoundingBox" stroke="none" fill="none" x="0" y="0" width="1" height="1"/>
       <path fill="rgb(0,0,0)" stroke="none" d="M 0,0 L 0,0 Z"/>
      </g>
     </g>
     <g class="com.sun.star.drawing.PolyPolygonShape">
      <g id="id131">
       <rect class="BoundingBox" stroke="none" fill="none" x="290" y="191" width="524" height="723"/>
       <path fill="rgb(51,153,255)" stroke="none" d="M 552,913 L 291,913 291,191 813,191 813,913 552,913 Z"/>
      </g>
     </g>
     <g class="com.sun.star.drawing.PolyPolygonShape">
      <g id="id132">
       <rect class="BoundingBox" stroke="none" fill="none" x="300" y="200" width="504" height="704"/>
       <path fill="rgb(51,153,255)" stroke="none" d="M 552,903 L 300,903 300,200 803,200 803,903 552,903 Z"/>
      </g>
     </g>
     <g class="com.sun.star.drawing.PolyPolygonShape">
      <g id="id133">
       <rect class="BoundingBox" stroke="none" fill="none" x="300" y="200" width="503" height="704"/>
       <path fill="rgb(51,153,255)" stroke="none" d="M 552,902 L 300,902 300,200 802,200 802,902 552,902 Z"/>
      </g>
     </g>
     <g class="com.sun.star.drawing.PolyPolygonShape">
      <g id="id134">
       <rect class="BoundingBox" stroke="none" fill="none" x="291" y="191" width="522" height="722"/>
       <path fill="rgb(51,153,255)" stroke="none" d="M 552,912 L 291,912 291,191 812,191 812,912 552,912 Z"/>
      </g>
     </g>
     <g class="com.sun.star.drawing.PolyPolygonShape">
      <g id="id135">
       <rect class="BoundingBox" stroke="none" fill="none" x="291" y="191" width="521" height="722"/>
       <path fill="rgb(51,153,255)" stroke="none" d="M 552,902 L 300,902 300,200 802,200 802,902 552,902 Z"/>
       <path fill="none" stroke="rgb(0,0,0)" stroke-width="18" stroke-linejoin="round" d="M 552,902 L 300,902 300,200 802,200 802,902 552,902 Z"/>
      </g>
     </g>
     <g class="com.sun.star.drawing.PolyPolygonShape">
      <g id="id136">
       <rect class="BoundingBox" stroke="none" fill="none" x="791" y="291" width="123" height="123"/>
       <path fill="rgb(51,153,255)" stroke="none" d="M 852,413 L 791,413 791,291 913,291 913,413 852,413 Z"/>
      </g>
     </g>
     <g class="com.sun.star.drawing.PolyPolygonShape">
      <g id="id137">
       <rect class="BoundingBox" stroke="none" fill="none" x="799" y="299" width="105" height="105"/>
       <path fill="rgb(51,153,255)" stroke="none" d="M 852,403 L 800,403 800,300 903,300 903,403 852,403 Z"/>
      </g>
     </g>
     <g class="com.sun.star.drawing.PolyPolygonShape">
      <g id="id138">
       <rect class="BoundingBox" stroke="none" fill="none" x="800" y="299" width="104" height="104"/>
       <path fill="rgb(51,153,255)" stroke="none" d="M 852,402 L 800,402 800,300 902,300 902,402 852,402 Z"/>
      </g>
     </g>
     <g class="com.sun.star.drawing.PolyPolygonShape">
      <g id="id139">
       <rect class="BoundingBox" stroke="none" fill="none" x="791" y="291" width="122" height="122"/>
       <path fill="rgb(51,153,255)" stroke="none" d="M 851,412 L 791,412 791,291 912,291 912,412 851,412 Z"/>
      </g>
     </g>
     <g class="com.sun.star.drawing.PolyPolygonShape">
      <g id="id140">
       <rect class="BoundingBox" stroke="none" fill="none" x="791" y="290" width="122" height="122"/>
       <path fill="rgb(51,153,255)" stroke="none" d="M 852,402 L 800,402 800,300 902,300 902,402 852,402 Z"/>
       <path fill="none" stroke="rgb(0,0,0)" stroke-width="18" stroke-linejoin="round" d="M 852,402 L 800,402 800,300 902,300 902,402 852,402 Z"/>
      </g>
     </g>
     <g class="com.sun.star.drawing.PolyPolygonShape">
      <g id="id141">
       <rect class="BoundingBox" stroke="none" fill="none" x="891" y="191" width="73" height="323"/>
       <path fill="rgb(51,153,255)" stroke="none" d="M 927,513 L 891,513 891,191 963,191 963,513 927,513 Z"/>
      </g>
     </g>
     <g class="com.sun.star.drawing.PolyPolygonShape">
      <g id="id142">
       <rect class="BoundingBox" stroke="none" fill="none" x="900" y="200" width="54" height="304"/>
       <path fill="rgb(51,153,255)" stroke="none" d="M 927,503 L 900,503 900,200 953,200 953,503 927,503 Z"/>
      </g>
     </g>
     <g class="com.sun.star.drawing.PolyPolygonShape">
      <g id="id143">
       <rect class="BoundingBox" stroke="none" fill="none" x="900" y="200" width="54" height="303"/>
       <path fill="rgb(51,153,255)" stroke="none" d="M 927,502 L 900,502 900,200 952,200 952,502 927,502 Z"/>
      </g>
     </g>
     <g class="com.sun.star.drawing.PolyPolygonShape">
      <g id="id144">
       <rect class="BoundingBox" stroke="none" fill="none" x="891" y="191" width="72" height="322"/>
       <path fill="rgb(51,153,255)" stroke="none" d="M 927,512 L 891,512 891,191 962,191 962,512 927,512 Z"/>
      </g>
     </g>
     <g class="com.sun.star.drawing.PolyPolygonShape">
      <g id="id145">
       <rect class="BoundingBox" stroke="none" fill="none" x="891" y="191" width="72" height="321"/>
       <path fill="rgb(51,153,255)" stroke="none" d="M 927,502 L 900,502 900,200 952,200 952,502 927,502 Z"/>
       <path fill="none" stroke="rgb(0,0,0)" stroke-width="18" stroke-linejoin="round" d="M 927,502 L 900,502 900,200 952,200 952,502 927,502 Z"/>
      </g>
     </g>
     <g class="com.sun.star.drawing.PolyPolygonShape">
      <g id="id146">
       <rect class="BoundingBox" stroke="none" fill="none" x="190" y="691" width="124" height="125"/>
       <path fill="rgb(51,153,255)" stroke="none" d="M 251,814 L 190,814 190,691 313,691 313,814 251,814 Z"/>
      </g>
     </g>
     <g class="com.sun.star.drawing.PolyPolygonShape">
      <g id="id147">
       <rect class="BoundingBox" stroke="none" fill="none" x="199" y="700" width="105" height="104"/>
       <path fill="rgb(51,153,255)" stroke="none" d="M 252,803 L 200,803 200,700 303,700 303,803 252,803 Z"/>
      </g>
     </g>
     <g class="com.sun.star.drawing.PolyPolygonShape">
      <g id="id148">
       <rect class="BoundingBox" stroke="none" fill="none" x="200" y="700" width="103" height="103"/>
       <path fill="rgb(51,153,255)" stroke="none" d="M 252,700 L 302,700 302,802 200,802 200,700 252,700 Z"/>
      </g>
     </g>
     <g class="com.sun.star.drawing.PolyPolygonShape">
      <g id="id149">
       <rect class="BoundingBox" stroke="none" fill="none" x="191" y="691" width="122" height="122"/>
       <path fill="rgb(51,153,255)" stroke="none" d="M 252,812 L 191,812 191,691 312,691 312,812 252,812 Z"/>
      </g>
     </g>
     <g class="com.sun.star.drawing.PolyPolygonShape">
      <g id="id150">
       <rect class="BoundingBox" stroke="none" fill="none" x="191" y="691" width="121" height="121"/>
       <path fill="rgb(51,153,255)" stroke="none" d="M 252,700 L 302,700 302,802 200,802 200,700 252,700 Z"/>
       <path fill="none" stroke="rgb(0,0,0)" stroke-width="18" stroke-linejoin="round" d="M 252,700 L 302,700 302,802 200,802 200,700 252,700 Z"/>
      </g>
     </g>
     <g class="com.sun.star.drawing.PolyPolygonShape">
      <g id="id151">
       <rect class="BoundingBox" stroke="none" fill="none" x="138" y="589" width="75" height="326"/>
       <path fill="rgb(51,153,255)" stroke="none" d="M 176,914 L 139,914 139,590 212,590 212,914 176,914 Z"/>
      </g>
     </g>
     <g class="com.sun.star.drawing.PolyPolygonShape">
      <g id="id152">
       <rect class="BoundingBox" stroke="none" fill="none" x="147" y="600" width="56" height="304"/>
       <path fill="rgb(51,153,255)" stroke="none" d="M 175,903 L 148,903 148,600 202,600 202,903 175,903 Z"/>
      </g>
     </g>
     <g class="com.sun.star.drawing.PolyPolygonShape">
      <g id="id153">
       <rect class="BoundingBox" stroke="none" fill="none" x="148" y="600" width="54" height="303"/>
       <path fill="rgb(51,153,255)" stroke="none" d="M 173,600 L 200,600 201,902 149,902 148,600 173,600 Z"/>
      </g>
     </g>
     <g class="com.sun.star.drawing.PolyPolygonShape">
      <g id="id154">
       <rect class="BoundingBox" stroke="none" fill="none" x="138" y="590" width="74" height="323"/>
       <path fill="rgb(51,153,255)" stroke="none" d="M 175,912 L 139,912 139,591 211,591 211,912 175,912 Z"/>
      </g>
     </g>
     <g class="com.sun.star.drawing.PolyPolygonShape">
      <g id="id155">
       <rect class="BoundingBox" stroke="none" fill="none" x="139" y="591" width="72" height="321"/>
       <path fill="rgb(51,153,255)" stroke="none" d="M 173,600 L 200,600 201,902 149,902 148,600 173,600 Z"/>
       <path fill="none" stroke="rgb(0,0,0)" stroke-width="18" stroke-linejoin="round" d="M 173,600 L 200,600 201,902 149,902 148,600 173,600 Z"/>
      </g>
     </g>
    </g>
   </g>
  </g>
 </g>
</svg>